<svg width="11" height="11" viewBox="0 0 11 11" fill="none" xmlns="http://www.w3.org/2000/svg">
<path d="M0.126923 5.92289C0.0423077 5.83827 0 5.71135 0 5.62673C0 5.54212 0.0423077 5.4152 0.126923 5.33058L0.719231 4.73827C0.888462 4.56904 1.14231 4.56904 1.31154 4.73827L1.35385 4.78058L3.68077 7.27673C3.76538 7.36135 3.89231 7.36135 3.97692 7.27673L9.64615 1.39597H9.68846C9.85769 1.22674 10.1115 1.22674 10.2808 1.39597L10.8731 1.98827C11.0423 2.1575 11.0423 2.41135 10.8731 2.58058L4.10385 9.60366C4.01923 9.68827 3.93462 9.73058 3.80769 9.73058C3.68077 9.73058 3.59615 9.68827 3.51154 9.60366L0.211538 6.04981L0.126923 5.92289Z" fill="#323232"/>
</svg>
