<svg width="16" height="16" viewBox="0 0 16 16" fill="none" xmlns="http://www.w3.org/2000/svg">
<g clip-path="url(#clip0)">
<path d="M15 3.50004C13.5729 -0.424652 10 1.00038 8.00003 3.00004C4.00001 -1.00007 1.4999 2.50049 0.999998 3.00035C-0.649289 4.64948 1.00003 7.83341 2.00003 9.50016L8.00003 15.0002C10.3334 13.1668 14.8 9.50016 14 9.50016C13 9.50016 17 9 15 3.50004Z" fill="#CD174E"/>
<path d="M15.9736 4.99796C15.74 2.42735 13.9205 0.562319 11.6435 0.562319C10.1265 0.562319 8.73748 1.37867 7.95589 2.68706C7.18139 1.36175 5.84931 0.562012 4.35661 0.562012C2.07986 0.562012 0.260064 2.42704 0.02682 4.99765C0.00835741 5.1112 -0.0673393 5.70877 0.162828 6.68329C0.494539 8.0889 1.26074 9.36744 2.37803 10.3798L7.9522 15.4383L13.6221 10.3801C14.7394 9.36744 15.5056 8.08921 15.8373 6.68329C16.0674 5.70908 15.9917 5.1115 15.9736 4.99796ZM15.2382 6.54235C14.9354 7.82612 14.2335 8.99573 13.2103 9.92255L7.95589 14.6105L2.79159 9.92378C1.76661 8.99511 1.06503 7.82581 0.761939 6.54205C0.544081 5.61984 0.633624 5.09889 0.633932 5.0955L0.638548 5.06442C0.838559 2.81229 2.40203 1.17743 4.35661 1.17743C5.79885 1.17743 7.06846 2.06364 7.67095 3.48987L7.95435 4.1616L8.23775 3.48987C8.83071 2.08548 10.1674 1.17774 11.6438 1.17774C13.5981 1.17774 15.1618 2.8126 15.3659 5.09396C15.3665 5.09889 15.456 5.62015 15.2382 6.54235Z" fill="#CD174E"/>
</g>
<defs>
<clipPath id="clip0">
<rect width="16" height="16" fill="white"/>
</clipPath>
</defs>
</svg>
