<svg width="13" height="13" viewBox="0 0 13 13" fill="none" xmlns="http://www.w3.org/2000/svg">
<path d="M6.5 0C2.91575 0 0 2.91575 0 6.5C0 10.0842 2.91575 13 6.5 13C10.0842 13 13 10.0842 13 6.5C13 2.91575 10.0842 0 6.5 0ZM6.5 12.5C3.19175 12.5 0.5 9.80825 0.5 6.5C0.5 3.19175 3.19175 0.5 6.5 0.5C9.80825 0.5 12.5 3.19175 12.5 6.5C12.5 9.80825 9.80825 12.5 6.5 12.5Z" fill="black"/>
<path d="M6.5 9.25C6.36175 9.25 6.25 9.36175 6.25 9.5V10C6.25 10.1382 6.36175 10.25 6.5 10.25C6.63825 10.25 6.75 10.1382 6.75 10V9.5C6.75 9.36175 6.63825 9.25 6.5 9.25Z" fill="black"/>
<path d="M6.52825 2.25025C6.51875 2.25025 6.50925 2.25 6.4995 2.25C5.9705 2.25 5.473 2.45375 5.09575 2.826C4.71175 3.20475 4.5 3.7105 4.5 4.25C4.5 4.38825 4.61175 4.5 4.75 4.5C4.88825 4.5 5 4.38825 5 4.25C5 3.8455 5.15875 3.466 5.44675 3.182C5.735 2.89775 6.11875 2.74075 6.5215 2.75025C7.31175 2.76125 7.98875 3.43825 7.99975 4.2285C8.007 4.7495 7.75 5.229 7.312 5.5115C6.647 5.9405 6.25 6.6985 6.25 7.5395V8.25C6.25 8.38825 6.36175 8.5 6.5 8.5C6.63825 8.5 6.75 8.38825 6.75 8.25V7.5395C6.75 6.879 7.069 6.26325 7.583 5.9315C8.16675 5.555 8.50951 4.91575 8.49976 4.2215C8.48476 3.14975 7.60025 2.26525 6.52825 2.25025Z" fill="black"/>
</svg>
