<svg width="13" height="13" viewBox="0 0 13 13" fill="none" xmlns="http://www.w3.org/2000/svg">
<circle cx="6.5" cy="6.5" r="6.5" fill="#E3DCD5"/>
<path d="M6.5 0C2.91575 0 0 2.91575 0 6.5C0 10.0842 2.91575 13 6.5 13C10.0842 13 13 10.0842 13 6.5C13 2.91575 10.0842 0 6.5 0ZM6.5 12.5C3.19175 12.5 0.5 9.80825 0.5 6.5C0.5 3.19175 3.19175 0.5 6.5 0.5C9.80825 0.5 12.5 3.19175 12.5 6.5C12.5 9.80825 9.80825 12.5 6.5 12.5Z" fill="#E3DCD5"/>
<path d="M6.5 9.25C6.36175 9.25 6.25 9.36175 6.25 9.5V10C6.25 10.1383 6.36175 10.25 6.5 10.25C6.63825 10.25 6.75 10.1383 6.75 10V9.5C6.75 9.36175 6.63825 9.25 6.5 9.25Z" fill="#363636"/>
<path d="M6.52862 2.25025C6.51912 2.25025 6.50962 2.25 6.49987 2.25C5.97087 2.25 5.47337 2.45375 5.09612 2.826C4.71212 3.20475 4.50037 3.7105 4.50037 4.25C4.50037 4.38825 4.61212 4.5 4.75037 4.5C4.88862 4.5 5.00037 4.38825 5.00037 4.25C5.00037 3.8455 5.15912 3.466 5.44712 3.182C5.73537 2.89775 6.11912 2.74075 6.52187 2.75025C7.31212 2.76125 7.98912 3.43825 8.00012 4.2285C8.00737 4.7495 7.75037 5.229 7.31237 5.5115C6.64737 5.9405 6.25037 6.6985 6.25037 7.5395V8.25C6.25037 8.38825 6.36212 8.5 6.50037 8.5C6.63862 8.5 6.75037 8.38825 6.75037 8.25V7.5395C6.75037 6.879 7.06937 6.26325 7.58337 5.9315C8.16712 5.555 8.50987 4.91575 8.50012 4.2215C8.48512 3.14975 7.60062 2.26525 6.52862 2.25025Z" fill="#363636"/>
</svg>
