<svg width="198" height="95" viewBox="0 0 198 95" fill="none" xmlns="http://www.w3.org/2000/svg">
<g filter="url(#filter0_f)">
<path d="M152.5 12.5L149 4.5L160 8L158.5 12.5H152.5Z" fill="white"/>
<path d="M69 60L65 58.5L66 51L69 60Z" fill="white"/>
<path d="M103.5 48.5L101.5 62L105 59.5L103.5 48.5Z" fill="white"/>
<path d="M141 33.5H124H123L124 36.5H141V33.5Z" fill="white"/>
<path d="M31 33.5L26.5 34V37H30L31 33.5Z" fill="white"/>
<path d="M5.5 34.5L1 36V38L5.5 37.5V34.5Z" fill="white"/>
<path d="M31 52L17.5 38L19.5 37.5L33 50L31 52Z" fill="white"/>
<path d="M60.5 2L57 18L69.5 12L60.5 2Z" fill="white"/>
<path d="M188 40.5L180.5 49.5L194.5 39.5L188 40.5Z" fill="white"/>
<path d="M196.5 34.5L175.5 14V33.5L196.5 34.5Z" fill="white"/>
<path d="M132.5 12L125.5 9L131 1.5L141 2L132.5 12Z" fill="white"/>
<path d="M131.5 11.5L123.5 18L126 32.5L141.5 33L132.5 12L131.5 11.5Z" fill="white"/>
<path d="M115 60.5L107.5 71L111.5 93.5H116V61.5L115 60.5Z" fill="#F5F7F1"/>
<path d="M81.5 7.5L70 11.5L91 26L81.5 7.5Z" fill="white"/>
<path d="M76.5 36.5H70L78 46.5L76.5 36.5Z" fill="white"/>
<path d="M100 33.5L78.5 17.5L76 32.5L100 33.5Z" fill="white"/>
<path d="M30.5 11.5L26.5 13.5V29.5L39.5 17L30.5 11.5Z" fill="white"/>
<path d="M136 65.5L127.5 67.5L116.5 93.5L136 65.5Z" fill="white"/>
<path d="M53.5 4L42 8L43 11.5L48 12L52 8.5L53.5 4Z" fill="white"/>
<path d="M29.5 55.5L18 44.5L27.5 56.5L29.5 55.5Z" fill="white"/>
<path d="M139.5 40L133.5 46L132.5 57L139.5 40Z" fill="white"/>
<path d="M68.5 46L62.5 40L70 57.5L68.5 46Z" fill="white"/>
<path d="M26.5 16L14.5 34H27L26.5 16Z" fill="white"/>
<path d="M131 37.5L136.5 43L140 40L141 36.5H133L131 37.5Z" fill="white"/>
<path d="M85.5 93L66 65.5L74.5 68L85.5 93Z" fill="white"/>
<path d="M83 76.5L83.5 66L85.5 77.5L83 76.5Z" fill="white"/>
<path d="M131.5 1.5L100.5 1L126.5 9.5L131.5 1.5Z" fill="white"/>
<path d="M91.5 58L89.5 59L93 61.5L91.5 58Z" fill="white"/>
<path d="M169 23.5H167.5L174 30.5L175 30L169 23.5Z" fill="white"/>
<path d="M184 36.5L168.5 50.5L178.5 36.5H184Z" fill="white"/>
<path d="M170.5 57L162.5 66.5L165 68L169 64L170.5 57Z" fill="white"/>
</g>
<defs>
<filter id="filter0_f" x="0" y="0" width="197.5" height="94.5" filterUnits="userSpaceOnUse" color-interpolation-filters="sRGB">
<feFlood flood-opacity="0" result="BackgroundImageFix"/>
<feBlend mode="normal" in="SourceGraphic" in2="BackgroundImageFix" result="shape"/>
<feGaussianBlur stdDeviation="0.5" result="effect1_foregroundBlur"/>
</filter>
</defs>
</svg>
