<svg width="1094" height="215" viewBox="0 0 1094 215" fill="none" xmlns="http://www.w3.org/2000/svg">
<path d="M0.42 136.075L3.865 208.42H5.985L5.455 191.725C5.19 188.545 4.925 182.98 4.395 180.33L5.455 180.065C6.25 182.45 10.225 187.485 12.08 188.81C25.595 198.35 37.52 203.12 53.95 203.12C89.195 203.12 113.045 184.04 113.045 155.42C113.045 122.295 87.87 105.6 64.285 91.29C43.615 79.1 24.535 67.44 24.535 45.445C24.535 24.51 36.46 13.115 58.19 13.115C84.425 13.115 96.88 33.785 97.94 54.72L98.47 65.85L103.24 65.585L100.325 3.04499H97.675L98.47 17.09C98.735 20.8 99 23.715 99.53 25.57L97.675 26.1C97.41 25.305 95.29 21.33 93.435 20.005C85.22 13.91 74.09 8.34498 58.19 8.34498C26.655 8.34498 5.985 25.57 5.985 51.275C5.985 82.28 29.835 97.12 52.89 110.9C73.56 123.355 93.17 136.87 93.17 159.66C93.17 182.98 77.27 198.35 53.42 198.35C28.245 198.35 7.045 178.21 5.72 146.94L4.925 136.075H0.42ZM124.318 201H191.893V198.615H182.618C169.898 198.615 168.308 197.555 168.308 184.835V27.16C168.308 14.44 169.898 13.38 182.618 13.38H191.893V10.465H124.318V12.85H133.593C146.313 12.85 147.638 13.91 147.638 26.63V184.835C147.638 197.555 146.313 198.615 133.593 198.615H124.318V201ZM201.178 201H312.743C316.983 201 318.043 200.47 319.898 198.615H320.163L319.103 214.25L321.753 214.515L327.053 139.255H321.753L319.633 165.755C317.513 191.195 300.553 196.23 275.113 196.23H239.338V195.965C242.518 192.785 245.168 188.015 245.168 182.185V26.63C245.168 13.91 246.758 12.85 259.478 12.85H268.753V10.465H201.178V12.85H210.453C223.173 12.85 224.498 13.91 224.498 26.63V182.715C224.498 195.435 223.173 198.615 210.453 198.615H201.178V201ZM313.696 10.465V12.85H317.671C326.416 12.85 328.271 17.355 333.306 29.28L403.531 203.385L417.841 202.325L487.801 29.28C492.571 17.62 494.691 12.85 503.171 12.85H506.351V10.465H448.581V12.85H471.371C480.381 12.85 484.091 16.56 484.091 22.125C484.091 24.245 483.561 26.63 482.501 29.28L423.141 172.115C420.756 177.68 420.491 181.39 420.491 182.715H417.046C417.046 179.005 415.191 174.235 414.926 173.175L353.976 25.57C352.386 21.065 349.471 14.705 345.761 13.38V12.85H366.166V10.465H313.696ZM598.873 146.41V61.345H596.488V70.62C596.488 96.06 582.708 98.71 567.868 98.71H557.268V29.28C557.268 23.45 554.618 18.68 551.438 15.5V15.235H588.803C614.243 15.235 628.023 25.04 629.613 53.66L630.673 72.21H635.443L630.673 0.394992L628.288 0.659989L629.083 12.85H628.818C626.963 10.995 623.253 10.465 619.013 10.465H513.278V12.85H522.553C535.273 12.85 536.598 14.175 536.598 26.895V184.57C536.598 197.29 535.273 198.615 522.553 198.615H513.278V201H633.323C637.563 201 641.273 200.47 643.128 198.615H643.393L642.598 211.07H644.983L649.488 139.255H645.248L643.658 160.455C641.803 185.895 629.613 196.23 604.173 196.23H551.438V195.965C554.618 192.785 557.268 188.015 557.268 182.185V103.48H567.868C582.708 103.48 596.488 106.395 596.488 131.835V146.41H598.873ZM659.494 201H733.164V198.615H717.794C705.074 198.615 703.484 197.29 703.484 184.57V29.28C703.484 23.185 702.159 18.68 698.979 15.5V15.235H726.539C758.604 15.235 776.094 34.315 776.094 69.295C776.094 104.805 758.604 123.62 726.539 123.62H714.349V128.125H717.529C729.454 128.125 735.019 135.015 743.764 148.53L762.314 177.15C770.529 190.135 779.804 203.915 793.319 203.915C799.679 203.915 806.834 201 815.314 193.58L821.144 188.545L819.554 186.69L813.724 191.725C811.074 194.11 808.689 194.64 806.039 194.64C797.824 194.64 786.959 178.475 780.334 167.61L767.084 146.675C761.254 137.665 750.124 129.715 737.669 128.39V126.8L742.969 126.535C774.769 123.62 799.149 101.625 799.149 69.295C799.149 34.05 771.059 10.465 728.659 10.465H659.494V12.85H668.769C681.489 12.85 682.814 14.175 682.814 26.895V184.57C682.814 197.29 681.489 198.615 668.769 198.615H659.494V201ZM822.79 201H890.365V198.615H881.09C868.37 198.615 866.78 197.555 866.78 184.835V27.16C866.78 14.44 868.37 13.38 881.09 13.38H890.365V10.465H822.79V12.85H832.065C844.785 12.85 846.11 13.91 846.11 26.63V184.835C846.11 197.555 844.785 198.615 832.065 198.615H822.79V201ZM897 201H945.23V198.615H932.245C924.295 198.615 919.26 194.64 919.26 188.28C919.26 186.425 919.79 184.57 920.85 182.185L935.16 149.325H1040.1L1054.94 185.63C1056.79 190.135 1059.71 196.76 1063.15 198.085V198.615H1042.75V201H1093.36V198.615H1091.24C1082.5 198.615 1080.91 194.905 1075.61 182.185L1013.07 29.015C1011.74 25.835 1010.68 18.945 1010.68 13.645V10.465H990.015L915.815 182.185C911.84 191.195 907.865 198.615 901.24 198.615H897V201ZM937.015 144.555L985.51 34.05C987.895 28.485 988.69 25.04 988.69 23.45H991.075C991.075 26.365 991.34 29.81 993.195 34.05L1037.98 144.555H937.015Z" fill="#978683" fill-opacity="0.2"/>
</svg>
