<?xml version="1.0" encoding="utf-8"?><svg xmlns="http://www.w3.org/2000/svg" xmlns:xlink="http://www.w3.org/1999/xlink"><symbol viewBox="0 0 88 30" id="dorohov" xmlns="http://www.w3.org/2000/svg"><path d="M36.294 13.335v-6.7h2.819c2.086 0 3.624 1.245 3.624 3.332 0 2.086-1.501 3.33-3.588 3.33h-2.855v.037zm4.686-3.332c0-1.025-.623-1.83-1.83-1.83h-1.1v3.66h1.1c1.134 0 1.83-.841 1.83-1.83zm2.416 0c0-2.05 1.538-3.441 3.588-3.441s3.551 1.428 3.551 3.441c0 2.014-1.538 3.441-3.551 3.441-2.087 0-3.588-1.427-3.588-3.44zm5.382 0c0-1.098-.696-1.94-1.794-1.94-1.099 0-1.83.842-1.83 1.94 0 1.098.695 1.94 1.83 1.94 1.061 0 1.794-.878 1.794-1.94zm6.516 3.332L54.16 11.1h-.878v2.233h-1.72V6.636h3.33c1.465 0 2.307.989 2.307 2.233 0 1.172-.696 1.794-1.318 2.014l1.355 2.453h-1.94zm.183-4.467c0-.439-.366-.695-.842-.695h-1.354V9.6h1.354c.44 0 .842-.256.842-.732zm2.417 1.135c0-2.05 1.537-3.441 3.587-3.441 2.05 0 3.552 1.428 3.552 3.441 0 2.014-1.538 3.441-3.552 3.441-2.05 0-3.587-1.427-3.587-3.44zm5.418 0c0-1.098-.696-1.94-1.794-1.94s-1.83.842-1.83 1.94c0 1.098.695 1.94 1.83 1.94 1.062 0 1.794-.878 1.794-1.94zm7.248 3.332v-2.673h-2.782v2.672h-1.72V6.636h1.72v2.526h2.783v-2.49h1.72v6.663h-1.72zm2.747-3.332c0-2.05 1.537-3.441 3.587-3.441 2.05 0 3.552 1.428 3.552 3.441 0 2.014-1.538 3.441-3.552 3.441-2.05 0-3.587-1.427-3.587-3.44zm5.381 0c0-1.098-.695-1.94-1.83-1.94-1.098 0-1.83.842-1.83 1.94 0 1.098.695 1.94 1.83 1.94 1.135 0 1.83-.878 1.83-1.94zm4.32 3.332l-2.526-6.7h1.94l1.648 4.832 1.648-4.832h1.94l-2.526 6.663h-2.124v.037zm-46.714 9.993v-6.662h2.819c2.086 0 3.624 1.244 3.624 3.331 0 2.087-1.501 3.331-3.588 3.331h-2.855zm4.686-3.33c0-1.026-.623-1.831-1.83-1.831h-1.1v3.66h1.1c1.134 0 1.83-.842 1.83-1.83zm2.782 3.33v-6.662h4.87v1.5h-3.186v1.026h3.112v1.5h-3.112v1.136h3.185v1.5h-4.869zm5.638-.915l.915-1.281a2.996 2.996 0 0 0 2.124.878c.585 0 .951-.22.951-.549 0-.915-3.77-.183-3.77-2.745 0-1.135.951-2.123 2.672-2.123 1.062 0 2.014.329 2.71.915l-.953 1.244c-.549-.476-1.28-.695-1.94-.695-.513 0-.732.183-.732.476 0 .842 3.77.22 3.77 2.709 0 1.354-.988 2.233-2.782 2.233-1.354 0-2.306-.44-2.965-1.062zm6.736.915v-6.662h1.72v6.662h-1.72zm2.746-3.331c0-2.123 1.611-3.441 3.625-3.441 1.5 0 2.38.805 2.855 1.61l-1.427.733c-.257-.44-.77-.842-1.428-.842-1.099 0-1.867.842-1.867 1.94 0 1.098.768 1.94 1.867 1.94.476 0 .988-.183 1.245-.402v-.513H62.25v-1.5h3.222v2.672c-.732.805-1.684 1.317-2.965 1.317-1.977-.036-3.625-1.39-3.625-3.514zm12.338 3.331l-2.82-3.843v3.88h-1.72v-6.7h1.757l2.71 3.662v-3.661h1.72v6.662H71.22zM11.8.558H.379v28.81h11.496c9.665 0 15.89-5.674 15.89-14.423C27.726 6.195 21.502.558 11.8.558zm-.292 23.027H6.419V6.745h5.162c5.968 0 10.141 2.343 10.141 8.237 0 4.722-3.807 8.603-10.214 8.603z"/><path d="M12.68 11.54h-1.318v6.846h1.318c2.6 0 4.137-1.574 4.137-3.514-.037-2.38-1.72-3.331-4.137-3.331z"/></symbol><symbol viewBox="0 0 32 32" id="facebook" xmlns="http://www.w3.org/2000/svg"><path d="M28.6.6H3.4A2.8 2.8 0 0 0 .6 3.4v25.2a2.8 2.8 0 0 0 2.8 2.8h14V18.8h-4.2v-4.2h4.2v-2.255c0-4.27 2.08-6.145 5.63-6.145 1.7 0 2.598.126 3.023.183V10.4h-2.42c-1.506 0-2.033.795-2.033 2.405V14.6h4.416l-.6 4.2H21.6v12.6h7a2.8 2.8 0 0 0 2.8-2.8V3.4A2.8 2.8 0 0 0 28.6.6z"/></symbol><symbol viewBox="0 0 22 22" id="heart" xmlns="http://www.w3.org/2000/svg"><path d="M21.963 6.872C21.643 3.337 19.142.773 16.01.773c-2.086 0-3.996 1.122-5.07 2.922C9.873 1.872 8.042.773 5.99.773 2.86.773.357 3.337.037 6.872c-.026.156-.13.977.187 2.317.456 1.933 1.51 3.691 3.046 5.083l7.664 6.955 7.796-6.954c1.537-1.393 2.59-3.15 3.046-5.084.317-1.34.212-2.16.188-2.317zm-1.01 2.124c-.417 1.765-1.382 3.373-2.789 4.647L10.94 20.09l-7.1-6.444c-1.41-1.277-2.375-2.885-2.791-4.65C.748 7.727.87 7.011.87 7.006l.007-.043C1.153 3.867 3.303 1.62 5.99 1.62c1.983 0 3.729 1.218 4.557 3.18l.39.923.39-.924c.815-1.93 2.653-3.179 4.683-3.179 2.687 0 4.837 2.248 5.118 5.385 0 .007.124.724-.176 1.992z"/></symbol><symbol viewBox="0 0 32 32" id="instagram" xmlns="http://www.w3.org/2000/svg"><path d="M3.4.6A2.8 2.8 0 0 0 .6 3.4v25.2a2.8 2.8 0 0 0 2.8 2.8h25.2a2.8 2.8 0 0 0 2.8-2.8V3.4A2.8 2.8 0 0 0 28.6.6H3.4zm0 2.8h25.2v8.4h-4.564A9.783 9.783 0 0 0 16 7.6a9.783 9.783 0 0 0-8.036 4.2H3.4V3.4zm21 2.8V9h2.8V6.2h-2.8zM16 10.4c3.86 0 7 3.14 7 7s-3.14 7-7 7-7-3.14-7-7 3.14-7 7-7zm0 2.8c-.648 0-1.253.16-1.802.421A1.4 1.4 0 0 1 13.2 16c-.382 0-.727-.154-.979-.402a4.164 4.164 0 0 0-.42 1.802 4.2 4.2 0 1 0 4.2-4.2z"/></symbol><symbol id="logo" viewBox="0 0 100 83" xml:space="preserve" xmlns="http://www.w3.org/2000/svg"><style>.est0{fill:#222220}</style><g id="eXMLID_14_"><g id="eXMLID_18_"><path id="eXMLID_35_" class="est0" d="M5.8 71.4c.3.1.6.3.9.5.3.1.5.2.7.2.1 0 .2-.1.3-.2.1-.1.1-.3.1-.6h.4c-.1.6-.1 1.7-.1 3.3h-.4c-.1-.9-.3-1.6-.8-2.2-.5-.6-1.2-.9-2.1-.9-.6 0-1.2.2-1.6.5-.4.3-.6.8-.6 1.3 0 .4.1.7.3 1 .1.2.4.5.7.7.3.2.7.4 1.2.7l.6.3c.7.4 1.3.7 1.8 1.1.4.3.8.7 1.1 1.1.3.4.4.9.4 1.4 0 1-.3 1.7-1 2.2-.8.5-1.7.8-2.7.8-.6 0-1-.1-1.4-.2-.4-.1-.7-.3-1-.5-.3-.2-.5-.3-.6-.3-.1 0-.2.1-.3.2-.1.1-.1.3-.1.6h-.5c0-.6.1-1.9.1-3.9h.4c.1 1.1.4 2 .9 2.7.5.7 1.3 1 2.4 1 .6 0 1.1-.2 1.5-.5.4-.3.7-.8.7-1.5 0-.4-.1-.7-.3-1-.2-.3-.5-.6-.9-.8-.4-.2-.9-.5-1.6-.9-1-.5-1.7-1-2.2-1.5-.5-.5-.8-1.2-.8-2 0-.9.3-1.6 1-2.1.6-.5 1.4-.7 2.4-.7.4 0 .8 0 1.1.2z"/><path id="eXMLID_33_" class="est0" d="M18.5 71.8c-.4 0-.7.1-.9.1-.2.1-.3.2-.4.4s-.1.5-.1 1v7.1c0 .5 0 .8.1 1 .1.2.2.3.4.4.2.1.5.1.9.1v.4c-.5 0-1.3-.1-2.3-.1-1 0-1.8 0-2.3.1V82c.4 0 .7-.1.9-.1.2-.1.3-.2.4-.4.1-.2.1-.5.1-1v-7.1c0-.5 0-.8-.1-1-.1-.2-.2-.3-.4-.4-.2-.1-.5-.1-.9-.1v-.4c.5 0 1.3.1 2.3.1 1 0 1.7 0 2.3-.1v.3z"/><path id="eXMLID_31_" class="est0" d="M28.1 71.8c-.4 0-.7.1-.9.1-.2.1-.3.2-.4.4-.1.2-.1.5-.1 1v7.1c0 .5 0 .8.1 1 .1.2.2.3.4.4.2.1.5.1.9.1h1.1c.8 0 1.5-.2 1.9-.7.5-.5.7-1.3.8-2.4h.4c0 .4-.1.9-.1 1.5s0 1.3.1 2.1c-.8 0-2.1-.1-3.9-.1-2.2 0-3.9 0-5 .1V82c.4 0 .7-.1.9-.1.2-.1.3-.2.4-.4.1-.2.1-.5.1-1v-7.1c0-.5 0-.8-.1-1-.1-.2-.2-.3-.4-.4-.2-.1-.5-.1-.9-.1v-.4c.5 0 1.3.1 2.3.1 1 0 1.7 0 2.3-.1v.3z"/><path id="eXMLID_29_" class="est0" d="M46.6 71.4v.4c-.3.1-.6.2-.8.5-.2.2-.4.7-.7 1.3l-3.9 8.9h-.3L36.7 73c-.3-.7-.7-1.1-1.2-1.1v-.4c.5 0 1.1.1 1.9.1 1 0 1.8 0 2.3-.1v.4c-.4 0-.8.1-1 .2-.2.1-.3.3-.3.5s.1.5.3.8l3.1 6.9 2.7-5.9c.3-.6.4-1.2.4-1.5 0-.3-.1-.6-.3-.7s-.6-.2-1.1-.3v-.4c.4 0 1 .1 2 .1.4-.1.8-.1 1.1-.2z"/><path id="eXMLID_27_" class="est0" d="M59.8 82.3c-.8 0-2.1-.1-3.9-.1-2.2 0-3.9 0-5 .1V82c.4 0 .7-.1.9-.1.2-.1.3-.2.4-.4.1-.2.1-.5.1-1v-7.1c0-.5 0-.8-.1-1s-.2-.4-.4-.5c-.2-.1-.5-.1-.9-.1v-.4c1.1 0 2.8.1 5 .1 1.7 0 2.9 0 3.6-.1-.1.7-.1 1.4-.1 1.9s0 .8.1 1.1H59c-.1-1-.3-1.7-.6-2-.3-.4-.9-.6-1.6-.6h-1.3c-.4 0-.7 0-.9.1-.2.1-.3.2-.4.4s-.1.5-.1 1v3.3h1.5c.4 0 .7-.1.9-.3.2-.2.3-.4.4-.6.1-.2.1-.5.2-.9h.4c0 .4-.1.8-.1 1.3v.7c0 .5 0 1.1.1 2H57c-.1-.6-.2-1-.4-1.3-.2-.3-.6-.5-1.1-.5H54v3.4c0 .5 0 .8.1 1 .1.2.2.3.4.4.2.1.5.1.9.1h1.3c.6 0 1.1-.1 1.4-.3.3-.2.6-.5.8-.9.2-.4.3-1 .4-1.8h.4c0 .3-.1.8-.1 1.3.1.6.1 1.3.2 2.1z"/><path id="eXMLID_24_" class="est0" d="M75.6 81.6c-.2.3-.5.6-.8.7-.3.2-.6.3-1 .3-1 0-1.6-.5-1.8-1.4l-.6-2.2c-.2-.7-.4-1.1-.7-1.3-.3-.2-.8-.3-1.5-.3h-1v3.1c0 .5 0 .8.1 1 .1.2.2.3.4.4.2.1.5.1.9.1v.4c-.5 0-1.3-.1-2.3-.1-1 0-1.8 0-2.3.1V82c.4 0 .7-.1.9-.1.2-.1.3-.2.4-.4.1-.2.1-.5.1-1v-7.1c0-.5 0-.8-.1-1-.1-.2-.2-.3-.4-.4-.2-.1-.5-.1-.9-.1v-.4c.5 0 1.2.1 2.2.1h2.5c1.3 0 2.4.3 3.1.8.7.5 1.1 1.2 1.1 2 0 .7-.3 1.3-.8 1.9-.6.6-1.5.9-2.7 1.1.2 0 .4 0 .6.1.6.1 1.1.3 1.5.6.4.3.6.7.8 1.4l.4 1.6c.1.4.2.7.3.9.1.2.3.3.4.3.3 0 .6-.2 1-.6l.2-.1zm-7-9.7c-.2.1-.3.2-.3.4-.1.2-.1.5-.1 1v3.6h1.2c1 0 1.8-.2 2.2-.7.4-.4.6-1.1.6-1.9 0-.9-.2-1.5-.7-1.9-.4-.4-1.1-.6-2.1-.6-.4 0-.6 0-.8.1z"/><path id="eXMLID_22_" class="est0" d="M84.4 71.8c-.4 0-.7.1-.9.1-.2.1-.3.2-.4.4-.1.2-.1.5-.1 1v7.1c0 .5 0 .8.1 1 .1.2.2.3.4.4.2.1.5.1.9.1v.4c-.5 0-1.3-.1-2.3-.1-1 0-1.8 0-2.3.1V82c.4 0 .7-.1.9-.1.2-.1.3-.2.4-.4.1-.2.1-.5.1-1v-7.1c0-.5 0-.8-.1-1-.1-.2-.2-.3-.4-.4-.2-.1-.5-.1-.9-.1v-.4c.5 0 1.3.1 2.3.1 1 0 1.7 0 2.3-.1v.3z"/><path id="eXMLID_19_" class="est0" d="M99.8 82v.4c-.5 0-1.1-.1-1.9-.1-1 0-1.8 0-2.3.1V82c.4 0 .8-.1 1-.2.2-.1.3-.3.3-.5s-.1-.5-.3-.8l-.9-2h-4.3l-.6 1.3c-.2.5-.3.8-.3 1.1 0 .3.1.6.3.7.2.2.6.3 1.1.3v.4c-.4 0-.9-.1-1.6-.1-.7 0-1.2 0-1.6.1V82c.3-.1.6-.3.8-.5.2-.3.4-.7.6-1.1l4-8.9h.3l4.2 9.5c.3.6.7.9 1.2 1zm-4.2-3.9l-2-4.5-2 4.5h4z"/></g><g id="eXMLID_15_"><path id="eXMLID_2_" class="est0" d="M51.4 7.8c0-1 2.7-3.7 3.7-3.7-1 0-3.7-2.7-3.7-3.7 0 1-2.7 3.7-3.7 3.7 1 0 3.7 2.7 3.7 3.7z"/><path id="eXMLID_1_" class="est0" d="M63.7 45.4c.1-.5.1-1 .1-1.6 0-2-.4-3.7-1.3-5.2s-2-2.8-3.5-4c-1.3-1-3-2.3-5.2-3.6-.2-.1-.3-.2-.5-.3-.1-.1-.3-.2-.4-.3l-1.8-1.1c-1.4-.9-2.5-1.6-3.3-2.1-.6-.4-1.1-.7-1.5-1-1.2-.9-2.2-1.9-2.9-3.2-.8-1.3-1.2-2.8-1.2-4.4 0-2.3.8-4.2 2.3-5.7l.2-.2c.4-.4 1-.6 1.6-.6 1 0 1.9.6 2.2 1.6v.2c.2.8.2 1.8.2 3v6.8l.9.6c1 .7 2 1.3 3.2 2.1l.6.3v-9.9c0-1 0-1.8.1-2.5.1-.5.2-.9.3-1.3.2-.4.4-.8.6-1.1l.2-.2c.3-.2.6-.4 1-.6h.2c.2-.1.3-.1.5-.1v-.2h-6.7c-4.8 0-9.5 2.1-10.6 7.1 0 .1 0 .2-.1.3-.2.8-.3 1.8-.3 2.8 0 2.1.4 3.9 1.3 5.4.9 1.5 2.1 2.9 3.5 4 1.3 1 2.9 2.1 4.8 3.3l1.1.7c2 1.2 3.7 2.3 5 3.4 1 .7 1.8 1.5 2.5 2.2 1.7 1.7 2.5 3.9 2.5 6.4 0 2.9-.9 5.2-2.6 6.7-.4.3-.8.5-1.3.5-.9 0-1.8-.6-2-1.6 0-.1-.1-.3-.1-.3-.1-.7-.1-1.5-.1-2.5v-7.7c-.3-.3-.7-.6-1-.8-1-.8-2.2-1.6-3.6-2.5V49c0 1.3-.1 2.3-.2 3-.1.3-.1.5-.2.7-.2.7-.6 1.2-1.2 1.6l-.6.3c-.2.1-.5.2-.8.2v.2h5.6c3.9 0 8-1.2 10.4-4.5 1.3-1.3 1.9-3 2.1-5.1 0 .1 0 .1 0 0z"/></g></g></symbol><symbol viewBox="0 0 32 32" id="ok" xmlns="http://www.w3.org/2000/svg"><path d="M3.4.6A2.8 2.8 0 0 0 .6 3.4v25.2a2.8 2.8 0 0 0 2.8 2.8h25.2a2.8 2.8 0 0 0 2.8-2.8V3.4A2.8 2.8 0 0 0 28.6.6H3.4zm12.597 4.2a5.912 5.912 0 0 1 5.907 5.906 5.909 5.909 0 0 1-5.907 5.901 5.91 5.91 0 0 1-5.903-5.903A5.908 5.908 0 0 1 15.997 4.8zm0 3.527a2.376 2.376 0 1 0 2.376 2.376 2.379 2.379 0 0 0-2.376-2.376zm-4.484 8.33c.216.034.427.113.623.237a7.286 7.286 0 0 0 7.728 0 1.677 1.677 0 0 1 2.316.528 1.686 1.686 0 0 1-.528 2.322 10.77 10.77 0 0 1-3.333 1.378l3.21 3.21a1.68 1.68 0 1 1-2.376 2.376L16 23.555l-3.153 3.153a1.676 1.676 0 0 1-2.376 0 1.684 1.684 0 0 1-.002-2.379l3.21-3.207a10.762 10.762 0 0 1-3.334-1.381 1.68 1.68 0 0 1-.525-2.319 1.68 1.68 0 0 1 1.693-.766z"/></symbol><symbol viewBox="0 0 23 23" id="pack" xmlns="http://www.w3.org/2000/svg"><g clip-path="url(#gclip0)"><path d="M21.387 5.437h-4.915V.756a.377.377 0 0 0-.376-.377H6.904a.377.377 0 0 0-.377.377v4.681H1.613a.378.378 0 0 0-.376.349L0 22.216a.375.375 0 0 0 .376.405h22.247a.374.374 0 0 0 .375-.405l-1.236-16.43a.379.379 0 0 0-.376-.349zm-5.291 2.39a.345.345 0 1 1 0 .69.345.345 0 0 1 0-.69zM7.28 1.133h8.439v4.305H7.28V1.133zm-.376 6.694a.345.345 0 1 1 0 .69.345.345 0 0 1 0-.69zM.783 21.867L1.962 6.193h4.565v.952c-.42.154-.723.555-.723 1.027a1.1 1.1 0 0 0 2.2 0c0-.472-.303-.873-.723-1.027v-.952h8.438v.952c-.42.154-.723.555-.723 1.027a1.1 1.1 0 0 0 2.2 0c0-.472-.303-.873-.724-1.027v-.952h4.566l1.179 15.676H.783z"/></g><defs><clipPath id="gclip0"><path d="M0 0h23v23H0z"/></clipPath></defs></symbol><symbol viewBox="0 0 23 23" id="search" xmlns="http://www.w3.org/2000/svg"><path d="M22.452 22.265l-6.453-6.71a9.09 9.09 0 0 0 2.666-6.436c0-5.028-4.09-9.119-9.12-9.119C4.518 0 .428 4.09.428 9.12c0 5.028 4.09 9.118 9.119 9.118a9.077 9.077 0 0 0 5.812-2.098l6.468 6.727a.431.431 0 0 0 .614.012.435.435 0 0 0 .012-.614zM9.546 17.37c-4.55 0-8.25-3.701-8.25-8.25 0-4.55 3.7-8.252 8.25-8.252s8.25 3.702 8.25 8.251c0 4.55-3.701 8.25-8.25 8.25z"/></symbol><symbol viewBox="0 0 23 23" id="search_input" xmlns="http://www.w3.org/2000/svg"><path d="M22.452 22.265l-6.453-6.71a9.09 9.09 0 0 0 2.666-6.436c0-5.028-4.09-9.119-9.12-9.119C4.518 0 .428 4.09.428 9.12c0 5.028 4.09 9.118 9.119 9.118a9.077 9.077 0 0 0 5.812-2.098l6.468 6.727a.431.431 0 0 0 .614.012.435.435 0 0 0 .012-.614zM9.546 17.37c-4.55 0-8.25-3.701-8.25-8.25 0-4.55 3.7-8.252 8.25-8.252s8.25 3.702 8.25 8.251c0 4.55-3.701 8.25-8.25 8.25z"/></symbol><symbol viewBox="0 0 23 23" id="user" xmlns="http://www.w3.org/2000/svg"><path d="M15.485 13.494l-.058-.027a9.122 9.122 0 0 0-2.108-.672l-.05-.009a7.94 7.94 0 0 0-.367-.063l-.035-.006h-.004l-.036-.005a8.67 8.67 0 0 0-.31-.042l-.363-.03a9.795 9.795 0 0 0-1.344.004l-.128.01-.06.005-.15.014a7.693 7.693 0 0 0-.41.055l-.04.006a12.58 12.58 0 0 0-.583.11 9.577 9.577 0 0 0-1.011.286l-.096.034c-.294.104-.586.224-.87.355l-.075.036-.001.002c-3.307 1.582-5.439 4.954-5.439 8.613 0 .084.006.166.011.25l.025.58h19.033l.026-.574c.006-.085.01-.17.01-.256a9.578 9.578 0 0 0-5.567-8.676zM3 23c.04-3.285 1.863-7.232 4.823-8.62l.096-.037.01-.01c.233-.107.472-.203.715-.289l.077-.027a8.454 8.454 0 0 1 1.191-.315 8.47 8.47 0 0 1 .22-.04l.037-.006a8.47 8.47 0 0 1 .401-.054l.305-.027c.4-.03.782-.034 1.244 0l.297.025c.073.008.147.018.236.03l.107.016c.111.016.223.035.335.056l.052.01.185.037a9.52 9.52 0 0 1 .894.248 8.264 8.264 0 0 1 .836.33l.024.01C18.112 15.726 19.96 19.683 20 23H3zm6.194-11.559c.07.03.142.055.214.08l.152.056c.058.022.117.044.177.063a5.912 5.912 0 0 0 1.73.27h.046c.203 0 .407-.01.602-.03.067-.007.132-.018.198-.029l.146-.022c.082-.01.164-.023.25-.04.06-.012.116-.027.173-.042l.16-.04c.078-.02.157-.04.235-.063a2.82 2.82 0 0 0 .143-.051l.129-.046c.091-.032.183-.065.276-.104.036-.015.07-.032.105-.049l.042-.02a6.19 6.19 0 0 0 .377-.182l.081-.048c.14-.08.28-.162.421-.258.073-.05.143-.105.212-.16l.24-.186c1.373-1.137 2.162-2.805 2.162-4.536l.003-.05A5.962 5.962 0 0 0 11.513 0a5.958 5.958 0 0 0-5.936 5.58l-.006.077a3.906 3.906 0 0 0-.013.298 5.943 5.943 0 0 0 3.636 5.486zm-2.692-5.72l.005-.083A5.024 5.024 0 0 1 11.512.933c2.77 0 5.023 2.253 5.025 4.98l-.003.048a5.021 5.021 0 0 1-1.832 3.867l-.222.169c-.05.04-.1.08-.161.123-.112.076-.23.145-.351.213l-.067.04c-.1.055-.206.103-.316.152l-.124.06c-.071.029-.146.054-.22.08l-.153.056c-.03.01-.06.023-.09.032-.057.018-.116.031-.175.046l-.186.047c-.04.011-.08.022-.115.03-.062.012-.125.02-.188.03l-.178.026a1.687 1.687 0 0 1-.134.02 4.879 4.879 0 0 1-.47.026h-.044a5.036 5.036 0 0 1-1.493-.227c-.041-.013-.082-.03-.122-.045l-.176-.064c-.054-.02-.108-.038-.16-.06A5.015 5.015 0 0 1 6.49 5.955c0-.079.006-.156.012-.233z"/></symbol><symbol viewBox="0 0 32 32" id="vk" xmlns="http://www.w3.org/2000/svg"><path d="M3.4.6A2.8 2.8 0 0 0 .6 3.4v25.2a2.8 2.8 0 0 0 2.8 2.8h25.2a2.8 2.8 0 0 0 2.8-2.8V3.4A2.8 2.8 0 0 0 28.6.6H3.4zm7 7h5.447c1.681 0 5.74.05 5.74 3.527 0 2.072-1.416 2.983-2.06 3.249v.085c1.665 0 3.473 1.741 3.473 3.666C23 20.2 22.126 23 16.56 23H10.4V7.6zm4.2 2.8v2.8s1.286-.014 1.501-.014c1.203 0 1.3-1.041 1.3-1.29 0-.161-.01-1.496-1.346-1.496H14.6zm0 5.6v4.2s1.75-.03 2.1-.03c1.816 0 2.1-1.555 2.1-2.116 0-.854-.458-2.037-2.034-2.037-.375 0-2.166-.017-2.166-.017z"/></symbol></svg>