<?xml version="1.0" standalone="no"?>
<!DOCTYPE svg PUBLIC "-//W3C//DTD SVG 20010904//EN"
 "http://www.w3.org/TR/2001/REC-SVG-20010904/DTD/svg10.dtd">
<svg version="1.0" xmlns="http://www.w3.org/2000/svg"
 width="100.000000pt" height="100.000000pt" viewBox="0 0 100.000000 100.000000"
 preserveAspectRatio="xMidYMid meet">
<metadata>
Created by potrace 1.11, written by Peter Selinger 2001-2013
</metadata>
<g transform="translate(0.000000,100.000000) scale(0.100000,-0.100000)"
fill="#000000" stroke="none">
<path d="M487 852 c-13 -14 -14 -21 -5 -30 16 -16 33 -15 47 1 8 11 7 18 -7
31 -18 15 -20 15 -35 -2z"/>
<path d="M429 767 c-28 -21 -41 -57 -35 -93 7 -34 26 -53 126 -127 46 -33 57
-58 46 -103 -12 -45 -35 -28 -38 27 -2 41 -8 55 -25 67 l-23 14 0 -62 c0 -45
-5 -69 -17 -82 -15 -17 -14 -18 23 -18 52 0 106 28 123 64 11 23 11 37 2 67
-9 31 -25 48 -89 91 -81 56 -106 93 -86 126 6 9 19 18 28 20 13 3 16 -6 16
-47 0 -39 4 -53 19 -61 30 -16 31 -14 31 48 0 32 5 63 12 70 17 17 -91 16
-113 -1z"/>
<path d="M77 253 c-15 -14 -6 -40 18 -53 28 -15 33 -30 10 -30 -7 0 -19 8 -24
18 -9 15 -10 15 -11 -5 0 -19 5 -23 30 -23 34 0 49 22 31 44 -8 10 -9 16 -1
21 21 13 10 35 -18 35 -16 0 -32 -3 -35 -7z m43 -19 c0 -9 -5 -14 -12 -12 -18
6 -21 28 -4 28 9 0 16 -7 16 -16z"/>
<path d="M185 210 c0 -38 4 -50 15 -50 11 0 15 12 15 50 0 38 -4 50 -15 50
-11 0 -15 -12 -15 -50z"/>
<path d="M265 210 l0 -50 38 0 c29 0 37 4 36 18 0 10 -3 12 -6 5 -2 -7 -11
-13 -20 -13 -12 0 -14 10 -11 45 3 40 1 45 -17 45 -17 0 -20 -7 -20 -50z"/>
<path d="M387 210 c13 -27 26 -50 28 -50 2 0 15 22 28 50 22 45 22 50 6 50
-11 0 -16 -6 -13 -17 5 -20 -11 -51 -21 -41 -4 4 -8 18 -9 32 -1 19 -7 26 -22
26 -21 0 -21 0 3 -50z"/>
<path d="M505 210 l0 -50 38 0 c29 0 37 4 36 18 0 10 -3 12 -6 5 -7 -19 -43
-16 -43 3 0 10 6 14 15 10 10 -4 15 1 15 14 0 11 5 20 10 20 6 0 10 7 10 15 0
11 -11 15 -37 15 l-38 0 0 -50z m55 31 c0 -5 -7 -14 -15 -21 -13 -10 -15 -9
-15 9 0 12 6 21 15 21 8 0 15 -4 15 -9z"/>
<path d="M625 210 c0 -40 3 -50 17 -50 9 0 19 10 21 23 l4 22 8 -22 c5 -15 15
-23 29 -23 15 0 17 3 8 9 -8 5 -15 26 -15 47 -2 37 -4 39 -37 42 l-35 3 0 -51z
m55 26 c0 -8 -4 -18 -10 -21 -5 -3 -10 3 -10 14 0 12 5 21 10 21 6 0 10 -6 10
-14z"/>
<path d="M755 210 c0 -38 4 -50 15 -50 11 0 15 12 15 50 0 38 -4 50 -15 50
-11 0 -15 -12 -15 -50z"/>
<path d="M848 209 c-24 -45 -24 -49 -7 -49 12 0 16 5 13 15 -4 11 0 15 16 15
16 0 20 -4 16 -15 -4 -11 1 -15 18 -15 l23 0 -23 47 c-13 25 -25 47 -27 49 -1
1 -14 -20 -29 -47z m27 1 c3 -5 1 -10 -4 -10 -6 0 -11 5 -11 10 0 6 2 10 4 10
3 0 8 -4 11 -10z"/>
</g>
</svg>
