<svg width="512" height="512" viewBox="0 0 512 512" fill="none" xmlns="http://www.w3.org/2000/svg">
<path d="M462 76H50C22.4297 76 0 98.4297 0 126V386C0 413.57 22.4297 436 50 436H462C489.57 436 512 413.57 512 386V126C512 98.4297 489.57 76 462 76ZM492 386C492 402.543 478.543 416 462 416H50C33.457 416 20 402.543 20 386V366H492V386ZM492 346H20H179H492ZM492 346H179H20V126C20 109.457 33.457 96 50 96H462C478.543 96 492 109.457 492 126V346Z" fill="black"/>
<path d="M462 199H402C396.477 199 392 203.477 392 209C392 214.523 396.477 219 402 219H462C467.523 219 472 214.523 472 209C472 203.477 467.523 199 462 199Z" fill="black"/>
<path d="M362 199H262C256.477 199 252 203.477 252 209C252 214.523 256.477 219 262 219H362C367.523 219 372 214.523 372 209C372 203.477 367.523 199 362 199Z" fill="black"/>
</svg>
