<svg width="14" height="14" viewBox="0 0 14 14" fill="none" xmlns="http://www.w3.org/2000/svg">
<path d="M7 0C3.1402 0 0 3.1402 0 7C0 10.8598 3.1402 14 7 14C10.8598 14 14 10.8598 14 7C14 3.1402 10.8598 0 7 0ZM7 13.5333C3.39757 13.5333 0.466667 10.6024 0.466667 7C0.466667 3.39757 3.39757 0.466667 7 0.466667C10.6024 0.466667 13.5333 3.39757 13.5333 7C13.5333 10.6024 10.6024 13.5333 7 13.5333Z" fill="#7C7B7B"/>
<path d="M6.99987 1.39999C6.87107 1.39999 6.76654 1.50429 6.76654 1.63333V6.99999H3.26654C3.13774 6.99999 3.0332 7.10429 3.0332 7.23333C3.0332 7.36236 3.13774 7.46666 3.26654 7.46666H6.99987C7.12867 7.46666 7.2332 7.36236 7.2332 7.23333V1.63333C7.2332 1.50429 7.12867 1.39999 6.99987 1.39999Z" fill="#7C7B7B"/>
</svg>
