<svg width="88" height="30" viewBox="0 0 88 30" fill="none" xmlns="http://www.w3.org/2000/svg">
<path d="M36.2935 13.3345V6.63525H39.1125C41.1993 6.63525 42.7369 7.87991 42.7369 9.96655C42.7369 12.0532 41.2359 13.2979 39.1491 13.2979H36.2935V13.3345ZM40.9796 10.0032C40.9796 8.97815 40.3572 8.17278 39.1491 8.17278H38.0508V11.8335H39.1491C40.284 11.8335 40.9796 10.9916 40.9796 10.0032Z" fill="#7C7B7B"/>
<path d="M43.396 10.0031C43.396 7.9531 44.9336 6.56201 46.9838 6.56201C49.034 6.56201 50.5351 7.98971 50.5351 10.0031C50.5351 12.0166 48.9974 13.4443 46.9838 13.4443C44.897 13.4443 43.396 12.0166 43.396 10.0031ZM48.7778 10.0031C48.7778 8.90491 48.0822 8.06293 46.9838 8.06293C45.8855 8.06293 45.1533 8.90491 45.1533 10.0031C45.1533 11.1014 45.8489 11.9433 46.9838 11.9433C48.0455 11.9433 48.7778 11.0648 48.7778 10.0031Z" fill="#7C7B7B"/>
<path d="M55.2943 13.3345L54.1594 11.1014H53.2808V13.3345H51.5601V6.63525H54.8916C56.356 6.63525 57.1981 7.62366 57.1981 8.86832C57.1981 10.0398 56.5025 10.6621 55.8801 10.8817L57.2347 13.3345H55.2943ZM55.4774 8.86832C55.4774 8.42903 55.1113 8.17278 54.6353 8.17278H53.2808V9.60048H54.6353C55.0747 9.60048 55.4774 9.34422 55.4774 8.86832Z" fill="#7C7B7B"/>
<path d="M57.8936 10.0031C57.8936 7.9531 59.4312 6.56201 61.4814 6.56201C63.5316 6.56201 65.0326 7.98971 65.0326 10.0031C65.0326 12.0166 63.495 13.4443 61.4814 13.4443C59.4312 13.4443 57.8936 12.0166 57.8936 10.0031ZM63.3119 10.0031C63.3119 8.90491 62.6163 8.06293 61.518 8.06293C60.4197 8.06293 59.6875 8.90491 59.6875 10.0031C59.6875 11.1014 60.3831 11.9433 61.518 11.9433C62.5797 11.9433 63.3119 11.0648 63.3119 10.0031Z" fill="#7C7B7B"/>
<path d="M70.5607 13.3345V10.6621H67.7783V13.3345H66.0576V6.63525H67.7783V9.16119H70.5607V6.67186H72.2814V13.3345H70.5607Z" fill="#7C7B7B"/>
<path d="M73.3066 10.0031C73.3066 7.9531 74.8443 6.56201 76.8945 6.56201C78.9447 6.56201 80.4457 7.98971 80.4457 10.0031C80.4457 12.0166 78.9081 13.4443 76.8945 13.4443C74.8443 13.4443 73.3066 12.0166 73.3066 10.0031ZM78.6884 10.0031C78.6884 8.90491 77.9928 8.06293 76.8579 8.06293C75.7596 8.06293 75.0273 8.90491 75.0273 10.0031C75.0273 11.1014 75.7229 11.9433 76.8579 11.9433C77.9928 11.9433 78.6884 11.0648 78.6884 10.0031Z" fill="#7C7B7B"/>
<path d="M83.0085 13.3345L80.4824 6.63525H82.4228L84.0703 11.4675L85.7177 6.63525H87.6581L85.132 13.2979H83.0085V13.3345Z" fill="#7C7B7B"/>
<path d="M36.2935 23.3284V16.6658H39.1125C41.1993 16.6658 42.7369 17.9104 42.7369 19.9971C42.7369 22.0837 41.2359 23.3284 39.1491 23.3284H36.2935ZM40.9796 19.9971C40.9796 18.9721 40.3572 18.1667 39.1491 18.1667H38.0508V21.8275H39.1491C40.284 21.8275 40.9796 20.9855 40.9796 19.9971Z" fill="#7C7B7B"/>
<path d="M43.7622 23.3284V16.6658H48.6314V18.1667H45.4463V19.1917H48.5582V20.6926H45.4463V21.8275H48.6314V23.3284H43.7622Z" fill="#7C7B7B"/>
<path d="M49.3999 22.4131L50.3152 21.1319C50.7911 21.6078 51.5233 22.0105 52.4386 22.0105C53.0243 22.0105 53.3904 21.7908 53.3904 21.4614C53.3904 20.5462 49.6196 21.2783 49.6196 18.7158C49.6196 17.5809 50.5714 16.5925 52.2921 16.5925C53.3538 16.5925 54.3057 16.922 55.0013 17.5077L54.0494 18.7524C53.5003 18.2765 52.7681 18.0568 52.1091 18.0568C51.5965 18.0568 51.3769 18.2399 51.3769 18.5327C51.3769 19.3747 55.1478 18.7524 55.1478 21.2417C55.1478 22.5962 54.1593 23.4748 52.3654 23.4748C51.0108 23.4748 50.0589 23.0355 49.3999 22.4131Z" fill="#7C7B7B"/>
<path d="M56.1362 23.3284V16.6658H57.8569V23.3284H56.1362Z" fill="#7C7B7B"/>
<path d="M58.8823 19.997C58.8823 17.8738 60.4932 16.5559 62.5068 16.5559C64.0078 16.5559 64.8865 17.3613 65.3624 18.1666L63.9346 18.8988C63.6783 18.4595 63.1658 18.0568 62.5068 18.0568C61.4085 18.0568 60.6396 18.8988 60.6396 19.997C60.6396 21.0953 61.4085 21.9372 62.5068 21.9372C62.9827 21.9372 63.4953 21.7542 63.7515 21.5346V21.022H62.2505V19.5211H65.4722V22.1935C64.74 22.9989 63.7881 23.5114 62.5068 23.5114C60.5298 23.4748 58.8823 22.1203 58.8823 19.997Z" fill="#7C7B7B"/>
<path d="M71.2199 23.3284L68.4009 19.4846V23.365H66.6802V16.6658H68.4375L71.1467 20.3265V16.6658H72.8673V23.3284H71.2199Z" fill="#7C7B7B"/>
<path d="M11.8009 0.55835H0.378418V29.3686H11.8741C21.5393 29.3686 27.7631 23.6944 27.7631 14.9452C27.7265 6.19594 21.5027 0.55835 11.8009 0.55835ZM11.508 23.5846H6.41916V6.74505H11.5813C17.5488 6.74505 21.7224 9.08794 21.7224 14.9818C21.7224 19.7042 17.9149 23.5846 11.508 23.5846Z" fill="#7C7B7B"/>
<path d="M12.6798 11.5408H11.3618V18.3864H12.6798C15.2792 18.3864 16.8168 16.8123 16.8168 14.8721C16.7802 12.4926 15.0961 11.5408 12.6798 11.5408Z" fill="#7C7B7B"/>
</svg>
