<svg width="16" height="16" viewBox="0 0 16 16" fill="none" xmlns="http://www.w3.org/2000/svg">
<g clip-path="url(#clip0)">
<path d="M12.9173 4.8677C12.9173 4.72968 13.0293 4.6177 13.1673 4.6177C13.3053 4.6177 13.4173 4.73018 13.4173 4.8677V14.4584C13.4173 14.8818 13.2434 15.2672 12.9642 15.5469C12.685 15.826 12.2991 16 11.8757 16H4.12565C3.70222 16 3.31576 15.826 3.0371 15.5469C2.75794 15.2677 2.58398 14.8823 2.58398 14.4584V4.8677C2.58398 4.72968 2.69597 4.6177 2.83397 4.6177C2.97199 4.6177 3.08398 4.73018 3.08398 4.8677V14.4584C3.08398 14.7438 3.2017 15.0047 3.39024 15.1932C3.57877 15.3818 3.83972 15.5 4.12513 15.5H11.8752C12.1606 15.5 12.421 15.3817 12.6095 15.1932C12.7986 15.0042 12.9163 14.7437 12.9163 14.4589V4.8677H12.9173Z" fill="#7C7B7B"/>
<path d="M6.13576 13.8125C6.13576 13.9505 6.02377 14.0625 5.88575 14.0625C5.74772 14.0625 5.63574 13.9505 5.63574 13.8125V4.9323C5.63574 4.79427 5.74772 4.68229 5.88575 4.68229C6.02377 4.68229 6.13576 4.79427 6.13576 4.9323V13.8125Z" fill="#7C7B7B"/>
<path d="M8.25097 13.8125C8.25097 13.9505 8.13901 14.0625 8.00098 14.0625C7.86296 14.0625 7.75098 13.9505 7.75098 13.8125V4.9323C7.75098 4.79427 7.86296 4.68229 8.00098 4.68229C8.13901 4.68229 8.25097 4.79427 8.25097 4.9323V13.8125Z" fill="#7C7B7B"/>
<path d="M10.3652 13.8125C10.3652 13.9505 10.2533 14.0625 10.1152 14.0625C9.97719 14.0625 9.86523 13.9505 9.86523 13.8125V4.9323C9.86523 4.79427 9.97719 4.68229 10.1152 4.68229C10.2533 4.68229 10.3652 4.79427 10.3652 4.9323V13.8125Z" fill="#7C7B7B"/>
<path d="M5.98925 1.54167C5.98925 1.67969 5.87727 1.79167 5.73924 1.79167C5.60124 1.79167 5.48926 1.67969 5.48926 1.54167C5.48926 1.11718 5.66269 0.731779 5.94187 0.452616C6.22104 0.17343 6.60646 0 7.03093 0H8.96843C9.39239 0 9.77782 0.173956 10.0569 0.45312C10.3361 0.732283 10.5101 1.11874 10.5101 1.54167C10.5101 1.67969 10.3981 1.79167 10.2601 1.79167C10.1221 1.79167 10.0101 1.67969 10.0101 1.54167C10.0101 1.25626 9.89241 0.995311 9.70385 0.806776C9.51527 0.618219 9.25437 0.49999 8.96896 0.49999H7.03147C6.74554 0.49999 6.48512 0.617693 6.29606 0.80625C6.10695 0.995311 5.98925 1.25573 5.98925 1.54167Z" fill="#7C7B7B"/>
<path d="M2.18782 2.26041H13.8128C14.0581 2.26041 14.2821 2.36092 14.4446 2.52343L14.4456 2.52449C14.6081 2.68698 14.7087 2.91094 14.7087 3.15625V3.8021C14.7087 3.9401 14.5967 4.05208 14.4587 4.05208H14.4519H1.542C1.40397 4.05208 1.29199 3.9401 1.29199 3.8021V3.79585V3.15625C1.29199 2.91147 1.39251 2.68698 1.55502 2.52449L1.55607 2.52343C1.71856 2.36094 1.94303 2.26041 2.18782 2.26041ZM13.8129 2.76042H2.18782C2.07897 2.76042 1.97949 2.8047 1.90866 2.87604L1.9076 2.87709C1.83625 2.9479 1.79198 3.04688 1.79198 3.15625V3.55209H14.2081V3.15625C14.2081 3.04741 14.1639 2.94792 14.0925 2.87709L14.0915 2.87604C14.0207 2.8047 13.9217 2.76042 13.8129 2.76042Z" fill="#7C7B7B"/>
</g>
<defs>
<clipPath id="clip0">
<rect width="16" height="16" fill="white"/>
</clipPath>
</defs>
</svg>
