<svg width="32" height="32" viewBox="0 0 32 32" fill="none" xmlns="http://www.w3.org/2000/svg">
<path d="M28.6001 0.600098H3.4001C1.8531 0.600098 0.600098 1.8531 0.600098 3.4001V28.6001C0.600098 30.1471 1.8531 31.4001 3.4001 31.4001H17.4001V18.8001H13.2001V14.6001H17.4001V12.3447C17.4001 8.0747 19.4805 6.2001 23.0295 6.2001C24.7291 6.2001 25.6279 6.3261 26.0535 6.3835V10.4001H23.6329C22.1265 10.4001 21.6001 11.1953 21.6001 12.8053V14.6001H26.0157L25.4165 18.8001H21.6001V31.4001H28.6001C30.1471 31.4001 31.4001 30.1471 31.4001 28.6001V3.4001C31.4001 1.8531 30.1457 0.600098 28.6001 0.600098Z" fill="#E3DCD5"/>
</svg>
