<svg width="33" height="24" viewBox="0 0 33 24" fill="none" xmlns="http://www.w3.org/2000/svg">
<path d="M5.00624 0C2.48312 0 0.430786 2.05233 0.430786 4.57545C0.430786 7.09857 2.48312 9.1509 5.00624 9.1509C7.52936 9.1509 9.58169 7.09857 9.58169 4.57545C9.58169 2.05233 7.522 0 5.00624 0ZM5.00624 7.38546C3.45412 7.38546 2.19623 6.12757 2.19623 4.57545C2.19623 3.02333 3.45412 1.76545 5.00624 1.76545C6.55836 1.76545 7.81624 3.02333 7.81624 4.57545C7.81624 6.12757 6.55101 7.38546 5.00624 7.38546Z" fill="black"/>
<path d="M27.7511 23.1509C30.2742 23.1509 32.3265 21.0985 32.3265 18.5754C32.3265 16.0523 30.2742 14 27.7511 14C25.228 14 23.1756 16.0523 23.1756 18.5754C23.1756 21.0985 25.2353 23.1509 27.7511 23.1509ZM27.7511 15.7654C29.3032 15.7654 30.5611 17.0233 30.5611 18.5754C30.5611 20.1275 29.3032 21.3854 27.7511 21.3854C26.199 21.3854 24.9411 20.1276 24.9411 18.5754C24.9411 17.0233 26.2063 15.7654 27.7511 15.7654Z" fill="black"/>
<path d="M14.1056 5.22272H31.6865C32.172 5.22272 32.5693 4.8255 32.5693 4.34C32.5693 3.8545 32.172 3.45728 31.6865 3.45728H14.1056C13.6201 3.45728 13.2229 3.8545 13.2229 4.34C13.2229 4.8255 13.6128 5.22272 14.1056 5.22272Z" fill="black"/>
<path d="M1.31346 19.4583L18.8944 19.4583C19.3799 19.4583 19.7771 19.061 19.7771 18.5755C19.7771 18.09 19.3799 17.6928 18.8944 17.6928L1.31346 17.6928C0.82796 17.6928 0.430733 18.09 0.430733 18.5755C0.430733 19.061 0.82796 19.4583 1.31346 19.4583Z" fill="black"/>
</svg>
