<svg width="22" height="22" viewBox="0 0 22 22" fill="none" xmlns="http://www.w3.org/2000/svg">
<path d="M21.9635 6.87201C21.6424 3.33742 19.1406 0.773006 16.0096 0.773006C13.9237 0.773006 12.0139 1.89549 10.9392 3.69452C9.87424 1.87222 8.04263 0.772583 5.99017 0.772583C2.85964 0.772583 0.357421 3.337 0.0367097 6.87159C0.0113236 7.02771 -0.0927594 7.84937 0.22372 9.18934C0.679824 11.1221 1.73335 12.88 3.26963 14.2721L10.9341 21.2274L18.7302 14.2725C20.2665 12.88 21.32 11.1225 21.7761 9.18934C22.0926 7.8498 21.9885 7.02814 21.9635 6.87201ZM20.9523 8.99556C20.536 10.7607 19.5709 12.3689 18.1641 13.6433L10.9392 20.0893L3.83827 13.645C2.42892 12.3681 1.46425 10.7603 1.0475 8.99513C0.747943 7.7271 0.871065 7.01079 0.871489 7.00613L0.877835 6.9634C1.15285 3.86672 3.30263 1.61879 5.99017 1.61879C7.97324 1.61879 9.71896 2.83732 10.5474 4.79839L10.9371 5.72202L11.3267 4.79839C12.1421 2.86736 13.98 1.61921 16.0101 1.61921C18.6972 1.61921 20.8474 3.86715 21.1279 7.00402C21.1287 7.01079 21.2519 7.72752 20.9523 8.99556Z" fill="black"/>
</svg>
