<svg width="22" height="22" viewBox="0 0 22 22" fill="none" xmlns="http://www.w3.org/2000/svg">
<path d="M21.9636 6.87213C21.6425 3.33754 19.1407 0.773128 16.0098 0.773128C13.9239 0.773128 12.014 1.89562 10.9393 3.69464C9.87436 1.87235 8.04276 0.772705 5.99029 0.772705C2.85976 0.772705 0.357543 3.33712 0.0368317 6.87171C0.0114457 7.02783 -0.0926373 7.8495 0.223843 9.18946C0.679946 11.1222 1.73347 12.8802 3.26975 14.2722L10.9342 21.2275L18.7303 14.2726C20.2666 12.8802 21.3201 11.1226 21.7762 9.18946C22.0927 7.84992 21.9886 7.02826 21.9636 6.87213ZM20.9524 8.99568C20.5361 10.7609 19.571 12.3691 18.1642 13.6434L10.9393 20.0894L3.8384 13.6451C2.42905 12.3682 1.46438 10.7604 1.04762 8.99525C0.748065 7.72722 0.871188 7.01091 0.871611 7.00626L0.877957 6.96352C1.15297 3.86684 3.30275 1.61891 5.99029 1.61891C7.97337 1.61891 9.71908 2.83744 10.5475 4.79851L10.9372 5.72214L11.3269 4.79851C12.1422 2.86748 13.9801 1.61933 16.0102 1.61933C18.6973 1.61933 20.8475 3.86727 21.128 7.00414C21.1289 7.01091 21.252 7.72764 20.9524 8.99568Z" fill="#CD174E"/>
<path d="M20.9999 9.49994C22.1999 5.09994 19.4999 2.66661 17.9999 1.99995C13.9485 0.158369 11.8471 2.97999 11.1492 4.99994C7.26865 -1.00006 3.09947 1.83327 1.49995 3.99994C-0.900053 7.59994 1.83328 12.1666 3.49995 13.9999L10.9999 20.4999L15.9999 15.9999C19.1999 13.1999 20.6666 10.4999 20.9999 9.49994Z" fill="#CD174E"/>
</svg>
