<svg width="32" height="32" viewBox="0 0 32 32" fill="none" xmlns="http://www.w3.org/2000/svg">
<path d="M3.4001 0.600098C1.8531 0.600098 0.600098 1.8531 0.600098 3.4001V28.6001C0.600098 30.1471 1.8531 31.4001 3.4001 31.4001H28.6001C30.1471 31.4001 31.4001 30.1471 31.4001 28.6001V3.4001C31.4001 1.8531 30.1471 0.600098 28.6001 0.600098H3.4001ZM3.4001 3.4001H28.6001V11.8001H24.0364C22.2652 9.26318 19.3288 7.6001 16.0001 7.6001C12.6714 7.6001 9.73495 9.26318 7.96377 11.8001H3.4001V3.4001ZM24.4001 6.2001V9.0001H27.2001V6.2001H24.4001ZM16.0001 10.4001C19.8599 10.4001 23.0001 13.5403 23.0001 17.4001C23.0001 21.2599 19.8599 24.4001 16.0001 24.4001C12.1403 24.4001 9.0001 21.2599 9.0001 17.4001C9.0001 13.5403 12.1403 10.4001 16.0001 10.4001ZM16.0001 13.2001C15.3519 13.2001 14.7469 13.3594 14.1981 13.6212C14.4459 13.8732 14.6001 14.2179 14.6001 14.6001C14.6001 15.3729 13.9729 16.0001 13.2001 16.0001C12.8179 16.0001 12.4732 15.8459 12.2212 15.5981C11.9594 16.1469 11.8001 16.7519 11.8001 17.4001C11.8001 19.7199 13.6803 21.6001 16.0001 21.6001C18.3199 21.6001 20.2001 19.7199 20.2001 17.4001C20.2001 15.0803 18.3199 13.2001 16.0001 13.2001Z" fill="#E3DCD5"/>
</svg>
