<?xml version="1.0" encoding="utf-8"?>
<!-- Generator: Adobe Illustrator 19.0.0, SVG Export Plug-In . SVG Version: 6.00 Build 0)  -->
<svg version="1.1" id="Слой_1" xmlns="http://www.w3.org/2000/svg" xmlns:xlink="http://www.w3.org/1999/xlink" x="0px" y="0px"
	 viewBox="0 0 100 83" style="enable-background:new 0 0 100 83;" xml:space="preserve">
<style type="text/css">
	.st0{fill:#222220;}
</style>
<g id="XMLID_14_">
	<g id="XMLID_18_">
		<path id="XMLID_35_" class="st0" d="M5.8,71.4c0.3,0.1,0.6,0.3,0.9,0.5C7,72,7.2,72.1,7.4,72.1c0.1,0,0.2-0.1,0.3-0.2
			c0.1-0.1,0.1-0.3,0.1-0.6h0.4c-0.1,0.6-0.1,1.7-0.1,3.3H7.7c-0.1-0.9-0.3-1.6-0.8-2.2c-0.5-0.6-1.2-0.9-2.1-0.9
			c-0.6,0-1.2,0.2-1.6,0.5c-0.4,0.3-0.6,0.8-0.6,1.3c0,0.4,0.1,0.7,0.3,1C3,74.5,3.3,74.8,3.6,75c0.3,0.2,0.7,0.4,1.2,0.7L5.4,76
			c0.7,0.4,1.3,0.7,1.8,1.1c0.4,0.3,0.8,0.7,1.1,1.1c0.3,0.4,0.4,0.9,0.4,1.4c0,1-0.3,1.7-1,2.2C6.9,82.3,6,82.6,5,82.6
			c-0.6,0-1-0.1-1.4-0.2c-0.4-0.1-0.7-0.3-1-0.5c-0.3-0.2-0.5-0.3-0.6-0.3c-0.1,0-0.2,0.1-0.3,0.2c-0.1,0.1-0.1,0.3-0.1,0.6H1.1
			c0-0.6,0.1-1.9,0.1-3.9h0.4c0.1,1.1,0.4,2,0.9,2.7c0.5,0.7,1.3,1,2.4,1c0.6,0,1.1-0.2,1.5-0.5c0.4-0.3,0.7-0.8,0.7-1.5
			c0-0.4-0.1-0.7-0.3-1c-0.2-0.3-0.5-0.6-0.9-0.8c-0.4-0.2-0.9-0.5-1.6-0.9c-1-0.5-1.7-1-2.2-1.5c-0.5-0.5-0.8-1.2-0.8-2
			c0-0.9,0.3-1.6,1-2.1c0.6-0.5,1.4-0.7,2.4-0.7C5.1,71.2,5.5,71.2,5.8,71.4z"/>
		<path id="XMLID_33_" class="st0" d="M18.5,71.8c-0.4,0-0.7,0.1-0.9,0.1c-0.2,0.1-0.3,0.2-0.4,0.4s-0.1,0.5-0.1,1v7.1
			c0,0.5,0,0.8,0.1,1c0.1,0.2,0.2,0.3,0.4,0.4c0.2,0.1,0.5,0.1,0.9,0.1v0.4c-0.5,0-1.3-0.1-2.3-0.1c-1,0-1.8,0-2.3,0.1V82
			c0.4,0,0.7-0.1,0.9-0.1c0.2-0.1,0.3-0.2,0.4-0.4c0.1-0.2,0.1-0.5,0.1-1v-7.1c0-0.5,0-0.8-0.1-1c-0.1-0.2-0.2-0.3-0.4-0.4
			c-0.2-0.1-0.5-0.1-0.9-0.1v-0.4c0.5,0,1.3,0.1,2.3,0.1c1,0,1.7,0,2.3-0.1V71.8z"/>
		<path id="XMLID_31_" class="st0" d="M28.1,71.8c-0.4,0-0.7,0.1-0.9,0.1c-0.2,0.1-0.3,0.2-0.4,0.4c-0.1,0.2-0.1,0.5-0.1,1v7.1
			c0,0.5,0,0.8,0.1,1c0.1,0.2,0.2,0.3,0.4,0.4c0.2,0.1,0.5,0.1,0.9,0.1h1.1c0.8,0,1.5-0.2,1.9-0.7c0.5-0.5,0.7-1.3,0.8-2.4h0.4
			c0,0.4-0.1,0.9-0.1,1.5c0,0.6,0,1.3,0.1,2.1c-0.8,0-2.1-0.1-3.9-0.1c-2.2,0-3.9,0-5,0.1V82c0.4,0,0.7-0.1,0.9-0.1
			c0.2-0.1,0.3-0.2,0.4-0.4c0.1-0.2,0.1-0.5,0.1-1v-7.1c0-0.5,0-0.8-0.1-1c-0.1-0.2-0.2-0.3-0.4-0.4c-0.2-0.1-0.5-0.1-0.9-0.1v-0.4
			c0.5,0,1.3,0.1,2.3,0.1c1,0,1.7,0,2.3-0.1V71.8z"/>
		<path id="XMLID_29_" class="st0" d="M46.6,71.4v0.4c-0.3,0.1-0.6,0.2-0.8,0.5c-0.2,0.2-0.4,0.7-0.7,1.3l-3.9,8.9h-0.3l-4.2-9.5
			c-0.3-0.7-0.7-1.1-1.2-1.1v-0.4c0.5,0,1.1,0.1,1.9,0.1c1,0,1.8,0,2.3-0.1v0.4c-0.4,0-0.8,0.1-1,0.2c-0.2,0.1-0.3,0.3-0.3,0.5
			c0,0.2,0.1,0.5,0.3,0.8l3.1,6.9l2.7-5.9c0.3-0.6,0.4-1.2,0.4-1.5c0-0.3-0.1-0.6-0.3-0.7s-0.6-0.2-1.1-0.3v-0.4c0.4,0,1,0.1,2,0.1
			C45.9,71.5,46.3,71.5,46.6,71.4z"/>
		<path id="XMLID_27_" class="st0" d="M59.8,82.3c-0.8,0-2.1-0.1-3.9-0.1c-2.2,0-3.9,0-5,0.1V82c0.4,0,0.7-0.1,0.9-0.1
			c0.2-0.1,0.3-0.2,0.4-0.4c0.1-0.2,0.1-0.5,0.1-1v-7.1c0-0.5,0-0.8-0.1-1S52,72,51.8,71.9c-0.2-0.1-0.5-0.1-0.9-0.1v-0.4
			c1.1,0,2.8,0.1,5,0.1c1.7,0,2.9,0,3.6-0.1c-0.1,0.7-0.1,1.4-0.1,1.9c0,0.5,0,0.8,0.1,1.1H59c-0.1-1-0.3-1.7-0.6-2
			c-0.3-0.4-0.9-0.6-1.6-0.6h-1.3c-0.4,0-0.7,0-0.9,0.1c-0.2,0.1-0.3,0.2-0.4,0.4s-0.1,0.5-0.1,1v3.3h1.5c0.4,0,0.7-0.1,0.9-0.3
			c0.2-0.2,0.3-0.4,0.4-0.6c0.1-0.2,0.1-0.5,0.2-0.9h0.4c0,0.4-0.1,0.8-0.1,1.3v0.7c0,0.5,0,1.1,0.1,2H57c-0.1-0.6-0.2-1-0.4-1.3
			C56.4,77.2,56,77,55.5,77H54v3.4c0,0.5,0,0.8,0.1,1c0.1,0.2,0.2,0.3,0.4,0.4c0.2,0.1,0.5,0.1,0.9,0.1h1.3c0.6,0,1.1-0.1,1.4-0.3
			c0.3-0.2,0.6-0.5,0.8-0.9c0.2-0.4,0.3-1,0.4-1.8h0.4c0,0.3-0.1,0.8-0.1,1.3C59.7,80.8,59.7,81.5,59.8,82.3z"/>
		<path id="XMLID_24_" class="st0" d="M75.6,81.6c-0.2,0.3-0.5,0.6-0.8,0.7c-0.3,0.2-0.6,0.3-1,0.3c-1,0-1.6-0.5-1.8-1.4L71.4,79
			c-0.2-0.7-0.4-1.1-0.7-1.3c-0.3-0.2-0.8-0.3-1.5-0.3h-1v3.1c0,0.5,0,0.8,0.1,1c0.1,0.2,0.2,0.3,0.4,0.4c0.2,0.1,0.5,0.1,0.9,0.1
			v0.4c-0.5,0-1.3-0.1-2.3-0.1c-1,0-1.8,0-2.3,0.1V82c0.4,0,0.7-0.1,0.9-0.1c0.2-0.1,0.3-0.2,0.4-0.4c0.1-0.2,0.1-0.5,0.1-1v-7.1
			c0-0.5,0-0.8-0.1-1c-0.1-0.2-0.2-0.3-0.4-0.4c-0.2-0.1-0.5-0.1-0.9-0.1v-0.4c0.5,0,1.2,0.1,2.2,0.1l1.8,0c0.2,0,0.4,0,0.7,0
			c1.3,0,2.4,0.3,3.1,0.8c0.7,0.5,1.1,1.2,1.1,2c0,0.7-0.3,1.3-0.8,1.9c-0.6,0.6-1.5,0.9-2.7,1.1c0.2,0,0.4,0,0.6,0.1
			c0.6,0.1,1.1,0.3,1.5,0.6c0.4,0.3,0.6,0.7,0.8,1.4l0.4,1.6c0.1,0.4,0.2,0.7,0.3,0.9c0.1,0.2,0.3,0.3,0.4,0.3c0.3,0,0.6-0.2,1-0.6
			L75.6,81.6z M68.6,71.9c-0.2,0.1-0.3,0.2-0.3,0.4c-0.1,0.2-0.1,0.5-0.1,1v3.6h1.2c1,0,1.8-0.2,2.2-0.7c0.4-0.4,0.6-1.1,0.6-1.9
			c0-0.9-0.2-1.5-0.7-1.9c-0.4-0.4-1.1-0.6-2.1-0.6C69,71.8,68.8,71.8,68.6,71.9z"/>
		<path id="XMLID_22_" class="st0" d="M84.4,71.8c-0.4,0-0.7,0.1-0.9,0.1c-0.2,0.1-0.3,0.2-0.4,0.4c-0.1,0.2-0.1,0.5-0.1,1v7.1
			c0,0.5,0,0.8,0.1,1c0.1,0.2,0.2,0.3,0.4,0.4c0.2,0.1,0.5,0.1,0.9,0.1v0.4c-0.5,0-1.3-0.1-2.3-0.1c-1,0-1.8,0-2.3,0.1V82
			c0.4,0,0.7-0.1,0.9-0.1c0.2-0.1,0.3-0.2,0.4-0.4c0.1-0.2,0.1-0.5,0.1-1v-7.1c0-0.5,0-0.8-0.1-1c-0.1-0.2-0.2-0.3-0.4-0.4
			c-0.2-0.1-0.5-0.1-0.9-0.1v-0.4c0.5,0,1.3,0.1,2.3,0.1c1,0,1.7,0,2.3-0.1V71.8z"/>
		<path id="XMLID_19_" class="st0" d="M99.8,82v0.4c-0.5,0-1.1-0.1-1.9-0.1c-1,0-1.8,0-2.3,0.1V82c0.4,0,0.8-0.1,1-0.2
			c0.2-0.1,0.3-0.3,0.3-0.5c0-0.2-0.1-0.5-0.3-0.8l-0.9-2h-4.3l-0.6,1.3c-0.2,0.5-0.3,0.8-0.3,1.1c0,0.3,0.1,0.6,0.3,0.7
			c0.2,0.2,0.6,0.3,1.1,0.3v0.4c-0.4,0-0.9-0.1-1.6-0.1c-0.7,0-1.2,0-1.6,0.1V82c0.3-0.1,0.6-0.3,0.8-0.5c0.2-0.3,0.4-0.7,0.6-1.1
			l4-8.9h0.3l4.2,9.5C98.9,81.6,99.3,81.9,99.8,82z M95.6,78.1l-2-4.5l-2,4.5H95.6z"/>
	</g>
	<g id="XMLID_15_">
		<path id="XMLID_2_" class="st0" d="M51.4,7.8c0-1,2.7-3.7,3.7-3.7c-1,0-3.7-2.7-3.7-3.7c0,1-2.7,3.7-3.7,3.7
			C48.7,4.1,51.4,6.8,51.4,7.8z"/>
		<path id="XMLID_1_" class="st0" d="M63.7,45.4L63.7,45.4c0.1-0.5,0.1-1,0.1-1.6c0-2-0.4-3.7-1.3-5.2c-0.9-1.5-2-2.8-3.5-4
			c-1.3-1-3-2.3-5.2-3.6c-0.2-0.1-0.3-0.2-0.5-0.3c-0.1-0.1-0.3-0.2-0.4-0.3l-1.8-1.1c-1.4-0.9-2.5-1.6-3.3-2.1
			c-0.6-0.4-1.1-0.7-1.5-1c-1.2-0.9-2.2-1.9-2.9-3.2c-0.8-1.3-1.2-2.8-1.2-4.4c0-2.3,0.8-4.2,2.3-5.7c0.1-0.1,0.1-0.1,0.2-0.2
			c0.4-0.4,1-0.6,1.6-0.6c1,0,1.9,0.6,2.2,1.6c0,0.1,0,0.1,0,0.2c0.2,0.8,0.2,1.8,0.2,3v6.8c0.3,0.2,0.6,0.4,0.9,0.6
			c1,0.7,2,1.3,3.2,2.1l0.6,0.3v-9.9c0-1,0-1.8,0.1-2.5c0.1-0.5,0.2-0.9,0.3-1.3c0.2-0.4,0.4-0.8,0.6-1.1l0.2-0.2h0
			c0.3-0.2,0.6-0.4,1-0.6l0.1,0c0.1,0,0.1,0,0.1,0c0.2-0.1,0.3-0.1,0.5-0.1v-0.2h-6.7c-4.8,0-9.5,2.1-10.6,7.1c0,0.1,0,0.2-0.1,0.3
			c0,0,0,0,0,0l0,0c-0.2,0.8-0.3,1.8-0.3,2.8c0,2.1,0.4,3.9,1.3,5.4c0.9,1.5,2.1,2.9,3.5,4c1.3,1,2.9,2.1,4.8,3.3l1.1,0.7
			c2,1.2,3.7,2.3,5,3.4c1,0.7,1.8,1.5,2.5,2.2c1.7,1.7,2.5,3.9,2.5,6.4c0,2.9-0.9,5.2-2.6,6.7c-0.4,0.3-0.8,0.5-1.3,0.5
			c-0.9,0-1.8-0.6-2-1.6c0-0.1-0.1-0.3-0.1-0.3c-0.1-0.7-0.1-1.5-0.1-2.5v-7.7c-0.3-0.3-0.7-0.6-1-0.8c-1-0.8-2.2-1.6-3.6-2.5V49
			c0,1.3-0.1,2.3-0.2,3c-0.1,0.3-0.1,0.5-0.2,0.7c-0.2,0.7-0.6,1.2-1.2,1.6c-0.2,0.1-0.4,0.2-0.6,0.3c-0.2,0.1-0.5,0.2-0.8,0.2v0.2
			h5.6c3.9,0,8-1.2,10.4-4.5C62.9,49.2,63.5,47.5,63.7,45.4C63.7,45.5,63.7,45.5,63.7,45.4z"/>
	</g>
</g>
</svg>
