<svg width="32" height="32" viewBox="0 0 32 32" fill="none" xmlns="http://www.w3.org/2000/svg">
<path d="M3.4001 0.600098C1.8531 0.600098 0.600098 1.8531 0.600098 3.4001V28.6001C0.600098 30.1471 1.8531 31.4001 3.4001 31.4001H28.6001C30.1471 31.4001 31.4001 30.1471 31.4001 28.6001V3.4001C31.4001 1.8531 30.1471 0.600098 28.6001 0.600098H3.4001ZM15.9974 4.8001C19.2552 4.8001 21.9036 7.44995 21.9036 10.7063C21.9036 13.9627 19.2538 16.6071 15.9974 16.6071C12.741 16.6071 10.0938 13.9586 10.0938 10.7036C10.0938 7.44721 12.741 4.7987 15.9974 4.8001ZM15.9974 8.32744C14.6884 8.32744 13.6239 9.39321 13.6239 10.7036C13.6239 12.0126 14.6884 13.0771 15.9974 13.0771C17.3078 13.0771 18.3735 12.0126 18.3735 10.7036C18.3735 9.39321 17.3078 8.32744 15.9974 8.32744ZM11.513 16.6563C11.7286 16.6914 11.9397 16.7703 12.1364 16.8942C14.4842 18.3726 17.5132 18.3726 19.8638 16.8942C20.6492 16.3986 21.6856 16.6352 22.1798 17.422C22.6726 18.2088 22.4389 19.2493 21.6521 19.7435C20.6147 20.3945 19.4864 20.8556 18.3188 21.1216L21.529 24.3317C22.1856 24.9869 22.1856 26.0513 21.529 26.7079C20.8724 27.3645 19.8094 27.3645 19.1528 26.7079L16.0001 23.5552L12.8474 26.7079C12.5184 27.0369 12.0877 27.2001 11.6579 27.2001C11.2281 27.2001 10.8002 27.0369 10.4712 26.7079C9.81459 26.0527 9.81326 24.9856 10.4685 24.329L13.6786 21.1216C12.5096 20.8556 11.3828 20.3917 10.3454 19.7407C9.56001 19.2465 9.32481 18.2088 9.82041 17.422C10.1911 16.8319 10.8661 16.5511 11.513 16.6563Z" fill="#E3DCD5"/>
</svg>
