<svg width="23" height="23" viewBox="0 0 23 23" fill="none" xmlns="http://www.w3.org/2000/svg">
<g clip-path="url(#clip0)">
<path d="M21.387 5.43742H16.4725V0.755754C16.4725 0.547667 16.3037 0.378784 16.0956 0.378784H6.90353C6.69544 0.378784 6.52656 0.547667 6.52656 0.755754V5.43742H1.61268C1.41665 5.43742 1.25139 5.59062 1.23691 5.78604L0.00105417 22.2165C-0.00678681 22.3209 0.0294023 22.4246 0.0999711 22.5C0.17054 22.5772 0.271266 22.6212 0.376818 22.6212H22.6235C22.729 22.6212 22.8298 22.5772 22.8997 22.5006C22.9709 22.4246 23.0071 22.3209 22.9992 22.2159L21.7634 5.78604C21.7489 5.59062 21.5836 5.43742 21.387 5.43742ZM16.0956 7.82651C16.2862 7.82651 16.4412 7.98091 16.4412 8.1703C16.4412 8.3603 16.2862 8.51531 16.0956 8.51531C15.905 8.51531 15.75 8.3603 15.75 8.1703C15.75 7.98091 15.905 7.82651 16.0956 7.82651ZM7.2805 1.13333H15.7186V5.43802H7.2805V1.13333ZM6.90353 7.82651C7.09412 7.82651 7.24913 7.98091 7.24913 8.1703C7.24913 8.3603 7.09412 8.51531 6.90353 8.51531C6.71293 8.51531 6.55792 8.3603 6.55792 8.1703C6.55792 7.98091 6.71293 7.82651 6.90353 7.82651ZM0.782739 21.8679L1.9619 6.19196H6.52656V7.14374C6.10616 7.29815 5.80398 7.69864 5.80398 8.17091C5.80398 8.77707 6.29736 9.26985 6.90353 9.26985C7.5097 9.26985 8.00307 8.77707 8.00307 8.17091C8.00307 7.69864 7.7009 7.29815 7.2805 7.14374V6.19196H15.7186V7.14374C15.2982 7.29815 14.996 7.69864 14.996 8.17091C14.996 8.77707 15.4894 9.26985 16.0956 9.26985C16.7017 9.26985 17.1951 8.77707 17.1951 8.17091C17.1951 7.69864 16.8929 7.29815 16.4725 7.14374V6.19196H21.0378L22.217 21.8679H0.782739Z" fill="#010002"/>
</g>
<defs>
<clipPath id="clip0">
<rect width="23" height="23" fill="white"/>
</clipPath>
</defs>
</svg>
