<svg width="17" height="7" viewBox="0 0 17 7" fill="none" xmlns="http://www.w3.org/2000/svg">
<path d="M16.8295 4.17015C16.7397 4.23906 16.6301 4.27264 16.5212 4.27264C16.3848 4.27264 16.2492 4.21987 16.1545 4.11738L14.8989 2.75964C14.3514 3.21277 13.6604 3.66371 12.8038 4.03386L13.5201 5.6137C13.6211 5.83633 13.5047 6.09135 13.2601 6.18326C13.2002 6.20572 13.1383 6.21641 13.0775 6.21641C12.8893 6.21641 12.7107 6.11479 12.6345 5.94656L11.9178 4.36597C11.0419 4.64519 10.0228 4.83446 8.84446 4.87546V6.56388C8.84446 6.80473 8.62996 7 8.3654 7C8.10084 7 7.88634 6.80473 7.88634 6.56388V4.87546C6.81216 4.83806 5.87199 4.67648 5.0504 4.43673L4.36582 5.94656C4.28953 6.11479 4.11107 6.21641 3.9228 6.21641C3.86184 6.21641 3.80004 6.20572 3.74016 6.18326C3.4956 6.09135 3.37918 5.83633 3.48015 5.6137L4.15359 4.12839C3.27211 3.77492 2.55747 3.33401 1.98643 2.88393L0.845776 4.11738C0.751041 4.21976 0.615466 4.27264 0.479053 4.27264C0.370066 4.27264 0.2606 4.23895 0.170775 4.17015C-0.0316294 4.015 -0.0576182 3.73992 0.112809 3.55566L1.29658 2.27566C0.438931 1.42676 0.073166 0.681 0.0390327 0.608714C-0.0654032 0.387494 0.0469374 0.130948 0.290062 0.0358744C0.533067 -0.0594171 0.814876 0.0430704 0.919312 0.2644C0.951769 0.331998 1.32484 1.08114 2.21901 1.8921C2.23135 1.89984 2.2444 1.90616 2.25614 1.9151C2.28764 1.9393 2.31339 1.96711 2.33626 1.99622C2.9521 2.53068 3.79621 3.07953 4.91961 3.46975C4.9347 3.47389 4.94992 3.47651 4.96489 3.48207C4.97087 3.48436 4.9759 3.48785 4.98177 3.49035C5.91188 3.80588 7.02881 4.01304 8.36528 4.01304C13.9768 4.01304 15.7935 0.301688 15.8111 0.264182C15.9156 0.0429615 16.1975 -0.059744 16.4404 0.0356565C16.6835 0.13073 16.7958 0.387275 16.6914 0.608495C16.6592 0.676748 16.3308 1.34553 15.5728 2.13425L16.8871 3.55544C17.0579 3.73992 17.0319 4.015 16.8295 4.17015Z" fill="#7C7B7B"/>
</svg>
