<svg width="17" height="17" viewBox="0 0 17 17" fill="none" xmlns="http://www.w3.org/2000/svg">
<g clip-path="url(#clip0)">
<path d="M16.7244 7.69963C15.7703 6.47633 14.5344 5.46446 13.1505 4.77351C11.7378 4.06817 10.218 3.70221 8.63142 3.68302C8.58772 3.68182 8.41228 3.68182 8.36858 3.68302C6.78207 3.70224 5.26224 4.06817 3.84951 4.77351C2.46558 5.46446 1.22979 6.47629 0.275668 7.69963C-0.0918895 8.17088 -0.0918895 8.82913 0.275668 9.30038C1.22976 10.5237 2.46558 11.5355 3.84951 12.2265C5.26224 12.9318 6.78204 13.2978 8.36858 13.317C8.41228 13.3182 8.58772 13.3182 8.63142 13.317C10.2179 13.2978 11.7378 12.9318 13.1505 12.2265C14.5344 11.5355 15.7702 10.5237 16.7244 9.30038C17.0919 8.82906 17.0919 8.17088 16.7244 7.69963ZM4.15847 11.6078C2.8662 10.9626 1.71213 10.0176 0.820996 8.87505C0.648771 8.65421 0.648771 8.34579 0.820996 8.12496C1.7121 6.98241 2.86617 6.03745 4.15847 5.39224C4.52549 5.20903 4.90029 5.05059 5.28203 4.91645C4.29995 5.79925 3.68121 7.07863 3.68121 8.49999C3.68121 9.92141 4.29998 11.2009 5.28216 12.0837C4.90042 11.9495 4.52553 11.791 4.15847 11.6078ZM8.50003 12.6272C6.22423 12.6272 4.37276 10.7758 4.37276 8.49995C4.37276 6.22415 6.22423 4.37271 8.50003 4.37271C10.7758 4.37271 12.6273 6.22418 12.6273 8.49999C12.6273 10.7758 10.7758 12.6272 8.50003 12.6272ZM16.1791 8.87501C15.288 10.0176 14.1339 10.9625 12.8416 11.6077C12.475 11.7907 12.1004 11.9485 11.7192 12.0825C12.7006 11.1997 13.3189 9.92074 13.3189 8.49995C13.3189 7.0784 12.7 5.79885 11.7177 4.91605C12.0995 5.05022 12.4745 5.20886 12.8416 5.39218C14.1339 6.03738 15.288 6.98234 16.1791 8.12489C16.3513 8.34576 16.3513 8.65418 16.1791 8.87501Z" fill="#7C7B7B"/>
<path d="M8.49964 6.73371C7.52572 6.73371 6.7334 7.52604 6.7334 8.49995C6.7334 9.47386 7.52572 10.2662 8.49964 10.2662C9.47355 10.2662 10.2659 9.47386 10.2659 8.49995C10.2659 7.52604 9.47358 6.73371 8.49964 6.73371ZM8.49964 9.57467C7.90706 9.57467 7.42492 9.09259 7.42492 8.49995C7.42492 7.90734 7.90699 7.42526 8.49964 7.42526C9.09221 7.42526 9.57432 7.90734 9.57432 8.49995C9.57435 9.09259 9.09221 9.57467 8.49964 9.57467Z" fill="#7C7B7B"/>
</g>
<defs>
<clipPath id="clip0">
<rect width="17" height="17" fill="white"/>
</clipPath>
</defs>
</svg>
