<svg width="11" height="11" viewBox="0 0 11 11" fill="none" xmlns="http://www.w3.org/2000/svg">
<path d="M0.390612 5.89146C0.174069 5.89146 0.00195312 5.71375 0.00195312 5.4972C0.00195312 5.28066 0.174069 5.10854 0.390612 5.10854H5.10455V0.394256C5.1049 0.177713 5.28261 0 5.49915 0C5.7157 0 5.88781 0.177713 5.88781 0.394256V5.10854H10.6018C10.8183 5.10854 10.996 5.28066 10.996 5.4972C10.996 5.71375 10.8183 5.89146 10.6018 5.89146H5.88781V10.6057C5.88781 10.8223 5.7157 11 5.49915 11C5.28261 11 5.1049 10.8223 5.1049 10.6057V5.89146H0.390612Z" fill="#1E201D"/>
</svg>
