<svg width="23" height="23" viewBox="0 0 23 23" fill="none" xmlns="http://www.w3.org/2000/svg">
<path d="M22.4519 22.2648L15.9995 15.5545C17.6453 13.904 18.6649 11.6285 18.6649 9.11906C18.6649 4.09055 14.5743 0 9.54581 0C4.51731 0 0.426758 4.09055 0.426758 9.11906C0.426758 14.1476 4.51731 18.2381 9.54581 18.2381C11.7531 18.2381 13.7788 17.4491 15.3577 16.1399L21.8257 22.8667C21.9108 22.9557 22.0246 23 22.1388 23C22.2474 23 22.3555 22.9596 22.4397 22.8788C22.6126 22.7125 22.6178 22.4377 22.4519 22.2648ZM9.54581 17.3696C4.99627 17.3696 1.29524 13.6686 1.29524 9.11906C1.29524 4.56952 4.99627 0.868482 9.54581 0.868482C14.0954 0.868482 17.7964 4.56952 17.7964 9.11906C17.7964 13.6686 14.0949 17.3696 9.54581 17.3696Z" fill="black"/>
</svg>
