<svg width="23" height="23" viewBox="0 0 23 23" fill="none" xmlns="http://www.w3.org/2000/svg">
<path d="M15.4853 13.4938L15.4265 13.4672C15.2861 13.4034 15.1447 13.3431 15.0005 13.2867C14.8433 13.2237 14.6837 13.1654 14.5218 13.1108C14.394 13.0688 14.2652 13.0296 14.135 12.9914C13.9368 12.934 13.7366 12.8822 13.5304 12.8365C13.4604 12.822 13.389 12.808 13.3181 12.7954L13.2696 12.786C13.1479 12.7622 13.0256 12.7412 12.902 12.723L12.8666 12.7174L12.8629 12.7165L12.8274 12.7118C12.7248 12.6964 12.6227 12.682 12.5162 12.6699L12.1542 12.64C11.7091 12.6106 11.2505 12.6116 10.8105 12.6437L10.6822 12.6545L10.6225 12.6591L10.4727 12.6726C10.3351 12.6871 10.1984 12.7062 10.0617 12.7281L10.0216 12.7337C9.92827 12.7491 9.83491 12.7664 9.74301 12.7837C9.64086 12.8019 9.54003 12.8219 9.43927 12.8439C9.24428 12.8877 9.05059 12.9377 8.86308 12.9923C8.71375 13.0352 8.56638 13.0823 8.42779 13.1299L8.33168 13.1644C8.03774 13.2685 7.74569 13.3879 7.46293 13.519L7.38735 13.5549L7.38598 13.5568C4.07947 15.1394 1.94727 18.5113 1.94727 22.17C1.94727 22.254 1.95286 22.3365 1.95801 22.4196L1.98276 23H21.0164L21.042 22.4261C21.0476 22.3412 21.0527 22.2567 21.0527 22.17C21.0527 18.4529 18.8688 15.0512 15.4853 13.4938ZM3 23C3.04015 19.715 4.86314 15.7683 7.82344 14.3803L7.91861 14.343L7.92979 14.3322C8.16166 14.2263 8.40101 14.1297 8.64362 14.0444L8.72057 14.0169C8.85262 13.9711 8.98417 13.9292 9.12086 13.8904C9.29117 13.8405 9.46475 13.7957 9.63876 13.7565C9.72878 13.7374 9.81887 13.7192 9.91172 13.7019C9.9854 13.6884 10.0587 13.6744 10.1328 13.6627L10.1692 13.6562C10.3026 13.6352 10.4366 13.6161 10.57 13.6016L10.8751 13.575C11.2745 13.5456 11.6566 13.5414 12.1194 13.575L12.4161 13.5998C12.4894 13.6082 12.5626 13.618 12.6518 13.6306L12.7586 13.646C12.8701 13.6623 12.9816 13.6814 13.0936 13.7025L13.1458 13.7123C13.2089 13.7239 13.2714 13.7361 13.3306 13.7486C13.5144 13.7888 13.695 13.8363 13.8741 13.8882C13.9926 13.9227 14.1102 13.9581 14.225 13.9964C14.3705 14.0449 14.5143 14.0977 14.6566 14.1541C14.7933 14.2077 14.9281 14.2651 15.0615 14.3263L15.0848 14.337C18.1123 15.726 19.9599 19.6833 20 23H3ZM9.19375 11.441C9.26373 11.4704 9.33604 11.496 9.40834 11.5217L9.55999 11.5767C9.61829 11.5991 9.67709 11.6211 9.73684 11.6397C10.293 11.8147 10.8748 11.9047 11.4664 11.9094L11.5135 11.9104C11.7164 11.9104 11.9199 11.8996 12.1148 11.8796C12.182 11.873 12.2473 11.8623 12.3131 11.8511L12.4592 11.8292C12.5413 11.8185 12.6234 11.8063 12.7093 11.7896C12.7681 11.7774 12.825 11.762 12.8819 11.7467L13.0415 11.7061C13.1203 11.687 13.1991 11.6678 13.2771 11.6436C13.3256 11.6282 13.3732 11.6105 13.4203 11.5927L13.5486 11.5465C13.6401 11.5148 13.7324 11.4821 13.8248 11.4434C13.8608 11.428 13.8958 11.4113 13.9302 11.3944L13.9718 11.3739C14.0982 11.3174 14.2242 11.2595 14.3492 11.1924L14.4304 11.1439C14.5703 11.0646 14.7098 10.9824 14.8512 10.8859C14.9244 10.8365 14.9944 10.7809 15.0635 10.7259L15.3024 10.5402C16.6759 9.4032 17.4654 7.73474 17.4654 6.00428L17.4682 5.95484C17.4682 2.6712 14.7967 0.00012207 11.513 0.00012207C8.37872 0.00012207 5.77109 2.45095 5.57653 5.57974L5.57138 5.6572C5.5639 5.75564 5.55788 5.85408 5.55788 5.95484C5.55693 8.35325 6.98416 10.5064 9.19375 11.441ZM6.50169 5.72188L6.50728 5.63789C6.67149 2.99948 8.8699 0.93312 11.5125 0.93312C14.282 0.93312 16.5345 3.18569 16.5369 5.91223L16.5341 5.96123C16.5322 7.45517 15.866 8.86186 14.7019 9.8281L14.4803 9.99703C14.4309 10.0372 14.3809 10.0773 14.3188 10.1202C14.2069 10.1963 14.0884 10.2648 13.968 10.333L13.9013 10.3736C13.8005 10.4277 13.6946 10.4757 13.5845 10.5247L13.4608 10.5845C13.3899 10.6139 13.3153 10.6395 13.2415 10.6652L13.0876 10.7207C13.0577 10.7319 13.0274 10.744 12.998 10.7529C12.9406 10.7706 12.8818 10.7842 12.8235 10.7986L12.6373 10.8463C12.5972 10.857 12.5575 10.8682 12.5221 10.8757C12.46 10.8878 12.3966 10.8962 12.3336 10.9051L12.1564 10.9316C12.1135 10.9391 12.0705 10.9466 12.0224 10.9512C11.8671 10.9676 11.7108 10.9764 11.5522 10.9778L11.5083 10.9774C10.9975 10.9769 10.495 10.9008 10.0153 10.7506C9.97379 10.7376 9.93321 10.7212 9.89263 10.7059L9.71723 10.642C9.66264 10.6228 9.60856 10.6041 9.55629 10.5822C7.69378 9.79449 6.49 7.97764 6.49 5.95513C6.49 5.87629 6.4961 5.79883 6.50169 5.72188Z" fill="black"/>
</svg>
