<svg width="32" height="32" viewBox="0 0 32 32" fill="none" xmlns="http://www.w3.org/2000/svg">
<path d="M3.4001 0.600098C1.8531 0.600098 0.600098 1.8531 0.600098 3.4001V28.6001C0.600098 30.1471 1.8531 31.4001 3.4001 31.4001H28.6001C30.1471 31.4001 31.4001 30.1471 31.4001 28.6001V3.4001C31.4001 1.8531 30.1471 0.600098 28.6001 0.600098H3.4001ZM10.4001 7.6001H15.847C17.5284 7.6001 21.5864 7.64984 21.5864 11.1274C21.5864 13.1994 20.1714 14.1099 19.5274 14.3759V14.4606C21.192 14.4606 23.0001 16.2024 23.0001 18.1274C23.0001 20.1994 22.1256 23.0001 16.5606 23.0001H10.4001V7.6001ZM14.6001 10.4001V13.2001C14.6001 13.2001 15.8857 13.1864 16.1013 13.1864C17.3039 13.1864 17.4001 12.145 17.4001 11.8958C17.4001 11.7348 17.3918 10.4001 16.0548 10.4001H14.6001ZM14.6001 16.0001V20.2001C14.6001 20.2001 16.3501 20.17 16.7001 20.17C18.5159 20.17 18.8001 18.615 18.8001 18.0536C18.8001 17.1996 18.3421 16.0165 16.7657 16.0165C16.3905 16.0165 14.6001 16.0001 14.6001 16.0001Z" fill="#E3DCD5"/>
</svg>
